<?xml version="1.0" encoding="UTF-8" standalone="no"?>
<svg
   width="787px"
   height="280px"
   viewBox="0 0 787 280"
   version="1.1"
   id="svg54"
   sodipodi:docname="desktop-slider-07-bg.svg"
   inkscape:version="1.3.2 (091e20e, 2023-11-25, custom)"
   xmlns:inkscape="http://www.inkscape.org/namespaces/inkscape"
   xmlns:sodipodi="http://sodipodi.sourceforge.net/DTD/sodipodi-0.dtd"
   xmlns="http://www.w3.org/2000/svg"
   xmlns:svg="http://www.w3.org/2000/svg">
  <defs
     id="defs54" />
  <sodipodi:namedview
     id="namedview54"
     pagecolor="#ffffff"
     bordercolor="#000000"
     borderopacity="0.25"
     inkscape:showpageshadow="2"
     inkscape:pageopacity="0.0"
     inkscape:pagecheckerboard="0"
     inkscape:deskcolor="#d1d1d1"
     inkscape:zoom="1.1829733"
     inkscape:cx="393.5"
     inkscape:cy="140.32438"
     inkscape:window-width="2560"
     inkscape:window-height="1010"
     inkscape:window-x="2873"
     inkscape:window-y="330"
     inkscape:window-maximized="1"
     inkscape:current-layer="svg54" />
  <title
     id="title1">desktop-slider-07-en</title>
  <g
     id="Page-1"
     stroke="none"
     stroke-width="1"
     fill="none"
     fill-rule="evenodd">
    <g
       id="vorlage-copy-7"
       transform="translate(-110.000000, -7631.000000)">
      <g
         id="desktop-slider-07-en"
         transform="translate(110.000000, 7631.000000)">
        <path
           d="M786,268 C786,271.182858 784.73684,274.235598 782.486219,276.486219 C780.235598,278.73684 777.182858,280 774,280 L12,280 C5.37329195,280 0,274.626708 0,268 L0,12 C0,5.37486834 5.37486834,0.00551405335 12,0 L774,0 C780.626639,0 786,5.37336053 786,12 L786,268 Z"
           id="Path-Copy-27"
           fill="#F5F6F7"
           fill-rule="nonzero" />
        <line
           x1="1"
           y1="28.9891"
           x2="787"
           y2="28.9891"
           id="Path-Copy-32"
           stroke="#010100"
           stroke-width="2.0025" />
        <circle
           id="Oval-Copy-56"
           stroke="#010100"
           stroke-width="1.0013"
           fill="#F0F0F2"
           fill-rule="nonzero"
           cx="333.181"
           cy="28.9355"
           r="4.7206" />
        <circle
           id="Oval-Copy-57"
           stroke="#010100"
           stroke-width="1.0013"
           fill="#F0F0F2"
           fill-rule="nonzero"
           cx="211.9533"
           cy="28.4945"
           r="4.7206" />
        <circle
           id="Oval-Copy-58"
           stroke="#010100"
           stroke-width="1.0013"
           fill="#F0F0F2"
           fill-rule="nonzero"
           cx="454.4088"
           cy="28.9891"
           r="4.7266" />
        <circle
           id="Oval-Copy-59"
           stroke="#010100"
           stroke-width="1.0013"
           fill="#F0F0F2"
           fill-rule="nonzero"
           cx="575.6366"
           cy="28.9891"
           r="4.7266" />
        <circle
           id="Oval-Copy-53"
           stroke="#010100"
           stroke-width="1.0013"
           fill="#F0F0F2"
           fill-rule="nonzero"
           cx="706.6366"
           cy="28.9891"
           r="4.7266" />
        <line
           x1="82"
           y1="74"
           x2="81.6691"
           y2="33.506"
           id="Path-Copy-33"
           stroke="#949494"
           stroke-width="2" />
        <circle
           id="Oval-Copy-61"
           stroke="#F7BB3C"
           stroke-width="3"
           fill="#E0003F"
           fill-rule="nonzero"
           cx="81.7794"
           cy="28.8321"
           r="6.2206" />
        <g
           id="Group"
           transform="translate(37.357942, 121.750000)"
           fill-rule="nonzero">
          <path
             d="M52.3718212,89.239457 C51.4623821,89.0260412 50.5101493,89.0862173 49.6348114,89.4124216 C49.431819,89.8145146 49.3252267,90.2583454 49.3234751,90.7087692 L49.3234751,94.6412748 L49.3323451,96.7123265 C49.3302374,96.727267 49.3272759,96.7420745 49.3234751,96.7566764 L49.3234751,103.328799 C52.1004885,103.486153 54.9323183,101.083009 55.9034924,97.566949 C56.9693979,93.7075321 55.3878805,89.9793021 52.3718212,89.239457 Z"
             id="path40"
             fill="#F3A5A6" />
          <path
             d="M40.7821279,102.57494 L40.7821279,90.7087692 C40.7806298,90.2589477 40.6746572,89.8156236 40.4725656,89.4137521 C39.5954879,89.0861319 38.6410841,89.0253339 37.7295243,89.2390135 C34.7137311,89.9788586 33.1318589,93.7070886 34.1978531,97.5665055 C35.1690272,101.084251 38.0030745,103.489169 40.7821279,103.328356 L40.7821279,102.57494 Z"
             id="path41"
             fill="#F3A5A6" />
          <polygon
             id="polygon41"
             fill="#F8CFCE"
             points="40.7821279 89.6124397 49.3239186 89.6124397 49.3239186 109.999911 40.7821279 109.999911" />
          <path
             d="M61.8713036,72.4548826 C61.287709,65.3409624 55.317858,59.8802117 48.1802234,59.9305983 L41.9558924,59.9305983 C34.5153332,59.876236 28.3996539,65.7870325 28.2013031,73.2251517 C28.1479074,76.9371227 29.6330507,80.5056919 32.304201,83.0837796 C33.4092231,84.4331697 36.5305691,86.496327 39.386614,88.228368 C40.253343,88.7543575 40.7822153,89.6950121 40.7812409,90.7088579 L40.7812409,110 L43.6860707,110 L43.6860707,89.6124397 L46.4180245,89.6124397 L46.4180245,110 L49.3228542,110 L49.3228542,96.7570312 C49.3267043,96.7427103 49.3296666,96.7281655 49.3317242,96.7134796 L49.3228542,94.6416296 L49.3228542,90.710011 C49.3217051,89.6968765 49.8497258,88.7566969 50.7154411,88.2304081 C51.9500536,87.4817818 53.2345154,86.6714204 54.3844196,85.8828792 C54.3844196,85.8828792 59.7706263,82.8102294 60.9365851,78.4239356 L60.9331259,78.4239356 C61.6954596,76.5314173 62.0163147,74.4900116 61.8713036,72.4548826 Z"
             id="path42"
             fill="#F3A5A6" />
          <path
             d="M42.1818994,86.496327 C41.8288503,86.137277 41.4321991,85.8238835 41.0012164,85.5634712 C36.0106109,82.5360584 34.8898002,81.3222903 34.7151503,81.1101204 L34.6012597,80.9710391 L34.4725563,80.8458837 C32.4124054,78.8684153 31.2690944,76.1221485 31.3173271,73.2669293 C31.492737,67.5334672 36.2200118,62.9924235 41.9558924,63.0474705 L48.1802234,63.0474705 C53.6814333,62.995257 58.2941065,67.189967 58.7630852,72.6713988 C58.8757784,74.2360008 58.6292378,75.8056566 58.0423107,77.2603717 L57.3979953,78.8645075 C56.2241737,80.6273398 54.6663013,82.1013931 52.8413092,83.1760274 L52.729991,83.2395365 L52.6235512,83.3125364 C51.6384512,83.9880741 50.4534219,84.74628 49.1014595,85.5661322 C48.6713749,85.8261239 48.2755846,86.1390134 47.9233488,86.4974801 L42.1815446,86.4974801 L42.1818994,86.496327 Z"
             id="path43"
             fill="#F8CFCE" />
          <path
             d="M24.1696311,26.9203968 L24.1696311,26.9195098 C23.8114855,26.2651343 23.3879379,25.6487436 22.9054815,25.0797873 C20.4780341,20.8429526 21.9056574,17.5643419 22.3760324,16.6976562 C24.432839,13.3338273 24.5268633,9.12511762 22.6223326,5.67279081 C20.7178019,2.22046401 17.1075243,0.0552911198 13.1650815,0.00104311526 C9.22263878,-0.0532048893 5.55415379,2.01181224 3.55535408,5.41042923 L3.55446708,5.40954223 C3.55446708,5.40954223 3.54408921,5.42781439 3.52581705,5.46338301 C3.19011432,6.03819599 2.90804137,6.64269316 2.68316895,7.26922223 C0.693965195,12.045296 -0.20483383,17.2049436 0.0522441822,22.3723146 L0,22.3871274 C0.195966433,27.3903336 1.6756436,32.2590158 4.29679571,36.5251659 C4.70805031,37.2443776 5.16033859,37.9393355 5.65141905,38.6065954 C5.68006909,38.6457121 5.70969482,38.6848287 5.73923185,38.7248323 C5.75839101,38.75091 5.77746147,38.7780522 5.79750762,38.8039525 L5.80007992,38.8021785 C6.42453599,39.6216786 7.16019752,40.3501155 7.98582039,40.9664536 L7.98670738,40.9672519 C12.1202903,44.0370159 17.8324007,43.8196393 21.7207241,40.4445986 C25.6090475,37.069558 26.6275716,31.4447854 24.1696311,26.9205742 L24.1696311,26.9203968 Z"
             id="path44"
             fill="#F3A5A6" />
          <path
             d="M65.935972,26.9203968 L65.935972,26.9195098 C66.2941175,26.2651343 66.7176651,25.6487436 67.2001215,25.0797873 C69.6275689,20.8429526 68.1999457,17.5643419 67.7295706,16.6976562 C65.6743608,13.3338625 65.5813314,9.12616093 67.4858631,5.67482002 C69.3903949,2.22347911 72.9998132,0.058876014 76.9413879,0.00425022313 C80.8829626,-0.0503755678 84.550981,2.01337045 86.5504264,5.41060663 L86.5513134,5.41060663 C86.5513134,5.41060663 86.5617799,5.42879008 86.5799634,5.46382651 C86.9153315,6.03881474 87.1973898,6.64328052 87.4226115,7.26966573 C89.4117289,12.0457646 90.3105245,17.2053926 90.0535363,22.3727581 L90.1067561,22.3875709 C89.910221,27.3908063 88.4302593,32.2594197 85.8090734,36.5256094 C85.3978506,37.2448406 84.9455612,37.9398002 84.4544501,38.6070389 C84.4258001,38.6470426 84.396263,38.6861592 84.3666373,38.7252758 C84.3475668,38.7518857 84.3284077,38.7784957 84.3084502,38.8051056 L84.3057892,38.8033316 C83.6813016,39.6224944 82.9456377,40.3505753 82.1200488,40.9665423 L82.1191618,40.9673406 C77.9855788,44.0371046 72.2734684,43.819728 68.385145,40.4446873 C64.4968216,37.0696467 63.4782975,31.4448741 65.9362381,26.9206629 L65.935972,26.9203968 Z"
             id="path45"
             fill="#F3A5A6" />
          <path
             d="M46.9342573,87.7474377 L49.3243621,85.3582199 L49.3243621,85.3556476 C50.4346175,84.6783359 51.5701524,83.9584483 52.5885148,83.2602922 L52.6972607,83.1864053 L52.8111513,83.1220092 C54.6231867,82.0368393 56.173776,80.5656268 57.352581,78.8130616 L57.9341856,77.3663679 C58.2270908,76.6550241 58.4430905,75.9143984 58.578501,75.157122 C58.5863065,75.1084258 58.5915398,75.0605279 58.5984584,75.0127187 L31.5025322,75.0127187 C31.8459813,77.2203059 32.9043163,79.2542137 34.5151322,80.8023321 L34.6464966,80.9293502 L34.7629595,81.0712699 C35.452423,81.913918 37.9024889,83.5969967 40.7812409,85.359373 L40.7812409,85.361147 L43.1713457,87.7512518 C43.5016624,88.0809912 43.6871817,88.5286249 43.6869577,88.9953552 L43.6869577,89.6135928 L46.4189115,89.6135928 L46.4189115,88.9936699 C46.4185399,88.5263372 46.60393,88.0780187 46.9342573,87.7474377 L46.9342573,87.7474377 Z"
             id="path46"
             fill="#F7BB3B" />
          <path
             d="M68.0046287,23.3472141 C68.4293448,22.216457 68.6181283,21.0107361 68.5593572,19.804278 C68.5008833,19.7950774 68.4419633,19.7889781 68.3828446,19.7860058 L66.3318392,19.7860058 C62.4001653,19.7908929 59.2141323,22.9769258 59.2092452,26.9085997 L59.2092452,51.9699299 C59.2103018,54.9645546 58.3710908,57.8993963 56.7870311,60.4407608 L55.7193516,62.1571019 C56.7317129,62.8104636 57.6541924,63.5935349 58.4632799,64.4863587 L59.810009,62.3231479 C61.7460556,59.2170008 62.7717427,55.6299539 62.7704535,51.9698412 L62.7704535,26.9082449 C62.7728971,24.942408 64.3659135,23.3493915 66.3317505,23.346948 L68.0046287,23.3472141 Z"
             id="path47"
             fill="#F8CFCE" />
          <path
             d="M33.2292512,60.4408495 C31.6458968,57.8992085 30.8069712,54.9645051 30.8077467,51.9700186 L30.8077467,26.9082449 C30.8028596,22.976571 27.6168267,19.7905381 23.6851528,19.785651 L21.6332603,19.785651 C21.6036346,19.785651 21.5758715,19.7934566 21.5463345,19.7952306 C21.4866401,21.0045658 21.6754028,22.2133056 22.1009743,23.3468593 L23.6851528,23.3468593 C25.6509551,23.3493517 27.2439176,24.9423538 27.246361,26.9081562 L27.246361,51.9699299 C27.2453092,55.6298858 28.2706483,59.2167905 30.2059186,62.3232366 L31.5996585,64.5612213 C32.4033589,63.6614349 33.3211538,62.8704895 34.3297497,62.2084591 L33.2292512,60.4408495 Z"
             id="path48"
             fill="#F8CFCE" />
          <path
             d="M60.4651457,89.0732344 C59.8910754,89.0736731 59.3887305,88.6873709 59.2417409,88.1324376 C59.0947512,87.5775042 59.3399987,86.9931812 59.8390138,86.7093839 C60.3780421,86.3949439 61.0021494,86.2575702 61.6233877,86.3166212 C61.8691748,86.3297488 61.8840764,86.3303697 62.0243108,86.2506286 C62.1645452,86.1708875 62.1719073,86.1575825 62.2868622,85.9392036 C62.8459715,84.7930218 64.0514727,84.1077369 65.3223468,84.2136377 C65.5689322,84.2265878 65.5836564,84.2273861 65.7242455,84.1473789 C66.3308119,83.8075651 67.0979374,84.0211937 67.4415542,84.6256138 C67.7851709,85.230034 67.5763645,85.9984861 66.9741144,86.3458922 C66.4359544,86.6628265 65.8110032,86.8005518 65.1894744,86.7391871 C64.9426229,86.7260595 64.9282535,86.7254386 64.787487,86.8054458 C64.6467204,86.885453 64.6398905,86.8985806 64.5248468,87.1170482 C64.2596704,87.6824725 63.8217174,88.1490322 63.2741797,88.4494079 C62.7352199,88.7641893 62.1109454,88.9015862 61.4896284,88.8421706 C61.2440186,88.8293979 61.2289397,88.8284222 61.0887053,88.9081633 C60.8986775,89.0163148 60.6837945,89.0732344 60.4651457,89.0732344 L60.4651457,89.0732344 Z"
             id="path49"
             fill="#DF0440" />
          <path
             d="M64.5126063,96.6282391 C63.9898379,96.6276009 63.4764488,96.4893572 63.0240462,96.2274047 C62.8085944,96.1140463 62.7961764,96.1073051 62.637936,96.1209649 C62.183772,96.1680188 61.7395149,95.9665781 61.4756499,95.5939465 C61.211785,95.221315 61.1692994,94.7353749 61.3644973,94.3226077 C61.5596952,93.9098405 61.9622556,93.6343629 62.4176944,93.6018906 C63.0382578,93.5407819 63.6623218,93.6764183 64.2015361,93.9895974 C64.4173427,94.1030445 64.4304703,94.1100517 64.587735,94.0960372 C64.7449998,94.0820226 64.7574177,94.07333 64.9504285,93.9238709 C65.9339556,93.1134012 67.3151774,92.9927184 68.4243562,93.6203401 C68.6405176,93.7338759 68.6534677,93.7406171 68.8115308,93.7267799 C69.2635132,93.6839394 69.7037756,93.886677 69.9650532,94.2579686 C70.2263308,94.6292603 70.2685226,95.1121199 70.0755991,95.5230991 C69.8826755,95.9340784 69.4842466,96.2101 69.0316837,96.2462977 C68.4110997,96.3071645 67.7870704,96.1716112 67.2476646,95.8587683 C67.0315032,95.7451439 67.0189965,95.7384027 66.86049,95.7523285 C66.7019834,95.7662544 66.6907186,95.7751244 66.4976191,95.9244949 C66.0207004,96.3263392 65.4295395,96.5681156 64.8077105,96.6156437 C64.7049074,96.6245137 64.6065394,96.6285939 64.5126063,96.6285939 L64.5126063,96.6282391 Z"
             id="path50"
             fill="#DF0440" />
          <path
             d="M67.157723,105.465489 C67.0441501,105.465489 66.9311015,105.450088 66.8216395,105.419808 C66.2286507,105.263464 65.7062234,104.910614 65.3397319,104.41892 C65.3014288,104.36957 65.2601979,104.322563 65.2162618,104.278153 C65.1961269,104.263163 65.1966591,104.266268 65.140867,104.251011 C65.1151891,104.242698 65.0885865,104.237575 65.061658,104.235755 C65.0014321,104.251503 64.9421946,104.270815 64.8842584,104.293587 C63.717098,104.763739 62.3796652,104.395709 61.6173561,103.394615 C61.5791022,103.345384 61.5379931,103.298441 61.4942408,103.254025 C61.4739285,103.238592 61.4746381,103.242228 61.4194669,103.227415 C60.7461575,103.042169 60.3505043,102.346172 60.5357507,101.672863 C60.7209972,100.999553 61.4169941,100.6039 62.0903034,100.789147 C62.6831169,100.945606 63.2053291,101.298521 63.5715901,101.790213 C63.6098674,101.839424 63.6509753,101.886366 63.6947054,101.930802 C63.7150177,101.946147 63.7143081,101.942599 63.7694794,101.957412 C63.7950093,101.966058 63.821597,101.971191 63.8485109,101.972668 C63.9087055,101.956848 63.9679372,101.937569 64.0259105,101.914925 C65.1932059,101.444911 66.5306649,101.812815 67.293345,102.81372 C67.3316904,102.863009 67.372888,102.910012 67.4167264,102.954486 C67.4368613,102.969654 67.4363291,102.966372 67.4921213,102.981628 C68.1015226,103.150185 68.4927993,103.742907 68.4083184,104.36952 C68.3238375,104.996134 67.7895612,105.464071 67.1572795,105.465223 L67.157723,105.465489 Z"
             id="path51"
             fill="#DF0440" />
          <path
             d="M28.6954497,100.558793 C29.26952,100.558354 29.7718648,100.944656 29.9188545,101.499589 C30.0658442,102.054523 29.8205967,102.638846 29.3215816,102.922643 C28.7825524,103.237086 28.1584535,103.374489 27.5372077,103.315494 C27.2914205,103.302367 27.276519,103.301746 27.1362846,103.381398 C26.9960502,103.461051 26.9885994,103.474533 26.8737332,103.692823 C26.3146314,104.839022 25.1091378,105.524338 23.8382486,105.418478 C23.5915745,105.405528 23.5768503,105.404729 23.4362611,105.484737 C22.8294417,105.826776 22.060282,105.613641 21.7160465,105.008065 C21.3718109,104.402489 21.5821563,103.632562 22.186481,103.286135 C22.7246262,102.969168 23.3495977,102.831469 23.9711209,102.892929 C24.2178838,102.905967 24.2323418,102.906677 24.3731084,102.826581 C24.513875,102.746485 24.5207049,102.733535 24.6357485,102.514979 C25.1945994,101.368742 26.400198,100.683553 27.670967,100.789945 C27.9165767,100.802629 27.9316557,100.803605 28.0718901,100.723952 C28.2619078,100.615766 28.4767924,100.558851 28.6954497,100.558793 L28.6954497,100.558793 Z"
             id="path52"
             fill="#DF0440" />
          <path
             d="M22.7801487,96.8732279 C22.1595622,96.9341371 21.5355201,96.798581 20.9961296,96.4856985 C20.7799682,96.3721627 20.7670181,96.3654216 20.6088663,96.3792587 C20.1536077,96.4283295 19.7073867,96.2274671 19.4422727,95.8541268 C19.1771587,95.4807866 19.1345721,94.9932978 19.3309349,94.5796433 C19.5272977,94.1659889 19.9319309,93.8907965 20.3888021,93.8601844 C21.0093861,93.7993176 21.6334154,93.9348709 22.1728212,94.2477138 C22.3889826,94.3613383 22.4014006,94.3680795 22.5599958,94.3541536 C22.7185911,94.3402277 22.7297672,94.3313577 22.9228667,94.1819873 C23.3997319,93.7800546 23.9909225,93.538266 24.6127753,93.4908384 C24.7155783,93.4819685 24.8139464,93.4778883 24.9078795,93.4778883 L24.9078795,93.4778883 C25.4306479,93.4785265 25.944037,93.6167702 26.3964396,93.8787227 C26.6118027,93.992081 26.6243093,93.9988222 26.7825498,93.9851624 C27.4712654,93.9360577 28.0720408,94.4484899 28.1321784,95.1363299 C28.192316,95.82417 27.6895792,96.4330818 27.0027914,96.5042367 C26.3822262,96.5653758 25.758153,96.4297374 25.2189497,96.1165299 C25.0030544,96.0030829 24.9900155,95.9960756 24.8327508,96.0100902"
             id="path53"
             fill="#DF0440" />
          <path
             d="M24.3981218,88.1256536 C23.8051587,87.9692022 23.2827553,87.6163368 22.9162142,87.1246764 C22.8778192,87.0754281 22.8366241,87.0284283 22.7928328,86.9839098 C22.7726979,86.9687422 22.7731414,86.972024 22.7173493,86.9567677 C22.2817944,86.8369026 21.9432725,86.493777 21.8293013,86.0566429 C21.7153301,85.6195088 21.8432247,85.1547774 22.1648083,84.8375084 C22.4863919,84.5202395 22.9528085,84.3986337 23.3883632,84.5184989 C23.9813402,84.6748689 24.5037597,85.0277138 24.8702708,85.5193874 C24.9085226,85.568754 24.9497249,85.615762 24.9936522,85.660154 C25.0137871,85.6751443 25.0132549,85.6720398 25.0691358,85.6872961 C25.0948109,85.6956194 25.1214148,85.7007435 25.1483447,85.7025525 C25.2085629,85.6867777 25.2677988,85.6674668 25.3257443,85.6447202 C26.4929157,85.1747613 27.8302296,85.5427577 28.5926466,86.5436927 C28.6308494,86.592939 28.6719299,86.639884 28.7156732,86.6842819 C28.7359855,86.6997157 28.7353646,86.696079 28.7904472,86.7108918 C29.226002,86.8307093 29.5645494,87.173791 29.6785617,87.6109014 C29.7925741,88.0480117 29.6647303,88.5127432 29.3431878,88.8300359 C29.0216453,89.1473286 28.5552541,89.2689783 28.1196993,89.1491606 C27.5268829,88.9927077 27.0046687,88.639791 26.6384126,88.1480947 C26.6001603,88.0988892 26.5590822,88.0519471 26.515386,88.0075055 C26.4950737,87.9921604 26.4956946,87.9957084 26.4405234,87.9808956 C26.4149954,87.9722416 26.3884067,87.9671089 26.3614918,87.9656392"
             id="path54"
             fill="#DF0440" />
        </g>
      </g>
    </g>
  </g>
  <text
     xml:space="preserve"
     style="font-size:18.6667px;font-family:Sans;-inkscape-font-specification:'Sans, Normal';fill:#008000"
     x="103.12996"
     y="70.162193"
     id="text54"><tspan
       sodipodi:role="line"
       id="tspan54"
       x="103.12996"
       y="70.162193"
       style="font-style:normal;font-variant:normal;font-weight:bold;font-stretch:normal;font-size:18.6667px;font-family:Sans;-inkscape-font-specification:'Sans, Bold';font-variant-ligatures:normal;font-variant-caps:normal;font-variant-numeric:normal;font-variant-east-asian:normal;fill:#ff0000">Мъже от 45 годишна възраст</tspan></text>
  <text
     xml:space="preserve"
     style="font-style:normal;font-variant:normal;font-weight:bold;font-stretch:normal;font-size:18.6667px;font-family:Sans;-inkscape-font-specification:'Sans, Bold';font-variant-ligatures:normal;font-variant-caps:normal;font-variant-numeric:normal;font-variant-east-asian:normal;fill:#000000"
     x="156.3856"
     y="167.37486"
     id="text55"><tspan
       sodipodi:role="line"
       id="tspan55"
       x="156.3856"
       y="167.37486">Изследване за рак на  простатата</tspan></text>
  <text
     xml:space="preserve"
     style="font-style:normal;font-variant:normal;font-weight:bold;font-stretch:normal;font-size:16px;font-family:Sans;-inkscape-font-specification:'Sans, Bold';font-variant-ligatures:normal;font-variant-caps:normal;font-variant-numeric:normal;font-variant-east-asian:normal;fill:#000000"
     x="157.23093"
     y="200.34264"
     id="text56"><tspan
       sodipodi:role="line"
       id="tspan56"
       x="157.23093"
       y="200.34264"
       style="font-style:normal;font-variant:normal;font-weight:normal;font-stretch:normal;font-size:16px;font-family:Sans;-inkscape-font-specification:'Sans, Normal';font-variant-ligatures:normal;font-variant-caps:normal;font-variant-numeric:normal;font-variant-east-asian:normal;fill:#008000">Ежегодно</tspan></text>
</svg>
