<?xml version="1.0" encoding="UTF-8" standalone="no"?>
<svg
   width="377px"
   height="441px"
   viewBox="0 0 377 441"
   version="1.1"
   id="svg118"
   sodipodi:docname="mobil-slider-01-bg.svg"
   inkscape:version="1.3.2 (091e20e, 2023-11-25, custom)"
   xmlns:inkscape="http://www.inkscape.org/namespaces/inkscape"
   xmlns:sodipodi="http://sodipodi.sourceforge.net/DTD/sodipodi-0.dtd"
   xmlns="http://www.w3.org/2000/svg"
   xmlns:svg="http://www.w3.org/2000/svg">
  <defs
     id="defs118" />
  <sodipodi:namedview
     id="namedview118"
     pagecolor="#ffffff"
     bordercolor="#000000"
     borderopacity="0.25"
     inkscape:showpageshadow="2"
     inkscape:pageopacity="0.0"
     inkscape:pagecheckerboard="0"
     inkscape:deskcolor="#d1d1d1"
     inkscape:zoom="1.3424036"
     inkscape:cx="188.84037"
     inkscape:cy="220.5"
     inkscape:window-width="2560"
     inkscape:window-height="1010"
     inkscape:window-x="2873"
     inkscape:window-y="330"
     inkscape:window-maximized="1"
     inkscape:current-layer="vorlage-copy-5" />
  <title
     id="title1">mobil-slider-01-en</title>
  <g
     id="Page-1"
     stroke="none"
     stroke-width="1"
     fill="none"
     fill-rule="evenodd">
    <g
       id="vorlage-copy-5"
       transform="translate(-940.000000, -512.000000)"
       fill-rule="nonzero">
      <g
         id="mobil-slider-01-en"
         transform="translate(940.000000, 512.000000)">
        <polygon
           id="path-1"
           fill="#B6B0FA"
           points="0 0 377 0 377 440.747 0 440.747" />
        <g
           id="Illustration"
           transform="translate(54.836748, 158.198535)">
          <path
             d="M31.1060292,108.668701 C31.1067422,112.057765 33.8545619,114.804638 37.243625,114.804183 C40.6326892,114.803727 43.3797711,112.056116 43.3795733,108.667052 C43.3793754,105.277989 40.6319719,102.530639 37.2429087,102.530639 C33.8537811,102.532182 31.1069196,105.279574 31.1060292,108.668701 L31.1060292,108.668701 Z M33.4621651,108.668701 C33.4654322,106.579299 35.1616016,104.888007 37.2510045,104.890745 C39.3404074,104.893509 41.0321181,106.589262 41.0298921,108.678665 C41.0276476,110.768069 39.3323127,112.460198 37.2429087,112.458483 C35.1537951,112.452553 33.463105,110.757824 33.4621651,108.668701 Z"
             id="Shape"
             fill="#FFFFFF" />
          <path
             d="M117.139564,205.456428 C117.140277,208.845492 119.888097,211.592365 123.27716,211.59191 C126.666224,211.591454 129.413306,208.843843 129.413108,205.454779 C129.41291,202.065716 126.665507,199.318366 123.276444,199.318366 C119.887316,199.319909 117.140455,202.067301 117.139564,205.456428 L117.139564,205.456428 Z M119.4957,205.456428 C119.498967,203.367026 121.195137,201.675734 123.28454,201.678472 C125.373942,201.681236 127.065653,203.376989 127.063427,205.466392 C127.061183,207.555796 125.365848,209.247925 123.276444,209.24621 C121.18733,209.24028 119.49664,207.545551 119.4957,205.456428 Z"
             id="Shape-Copy"
             fill="#FFFFFF" />
          <path
             d="M246.189867,183.948044 C246.19058,187.337108 248.9384,190.083981 252.327463,190.083526 C255.716527,190.083071 258.463609,187.335459 258.463411,183.946396 C258.463213,180.557332 255.71581,177.809982 252.326746,177.809982 C248.937619,177.811525 246.190757,180.558917 246.189867,183.948044 L246.189867,183.948044 Z M248.546003,183.948044 C248.54927,181.858642 250.245439,180.16735 252.334842,180.170088 C254.424245,180.172852 256.115956,181.868605 256.11373,183.958009 C256.111485,186.047412 254.41615,187.739541 252.326746,187.737827 C250.237633,187.731896 248.546943,186.037167 248.546003,183.948044 Z"
             id="Shape-Copy-2"
             fill="#FFFFFF" />
          <path
             d="M267.698251,44.1435499 C267.698964,47.5326135 270.446783,50.2794868 273.835846,50.2790315 C277.224911,50.2785761 279.971993,47.5309646 279.971795,44.1419011 C279.971597,40.7528375 277.224193,38.0054874 273.83513,38.0054874 C270.446003,38.0070308 267.699141,40.7544223 267.698251,44.1435499 L267.698251,44.1435499 Z M270.054387,44.1435499 C270.057654,42.0541478 271.753823,40.3628559 273.843226,40.3655936 C275.932629,40.368358 277.62434,42.0641106 277.622113,44.1535141 C277.619869,46.2429178 275.924534,47.9350467 273.83513,47.9333324 C271.746017,47.9274018 270.055326,46.2326723 270.054387,44.1435499 Z"
             id="Shape-Copy-3"
             fill="#FFFFFF" />
          <path
             d="M224.681483,11.8809743 C224.682196,15.2700378 227.430016,18.0169112 230.819079,18.0164558 C234.208143,18.0160005 236.955225,15.268389 236.955027,11.8793254 C236.954829,8.49026188 234.207426,5.74291171 230.818363,5.74291171 C227.429235,5.74445515 224.682374,8.49184662 224.681483,11.8809743 L224.681483,11.8809743 Z M227.037619,11.8809743 C227.040886,9.79157212 228.737056,8.10028025 230.826458,8.10301795 C232.915861,8.10578231 234.607572,9.80153491 234.605346,11.8909385 C234.603102,13.9803421 232.907767,15.6724711 230.818363,15.6707568 C228.729249,15.6648261 227.038559,13.9700966 227.037619,11.8809743 Z"
             id="Shape-Copy-4"
             fill="#FFFFFF" />
          <path
             d="M84.8769886,22.6351662 C84.8777016,26.0242297 87.6255213,28.771103 91.0145844,28.7706477 C94.4036486,28.7701924 97.1507306,26.0225809 97.1505327,22.6335173 C97.1503348,19.2444538 94.4029313,16.4971036 91.0138682,16.4971036 C87.6247405,16.498647 84.877879,19.2460385 84.8769886,22.6351662 L84.8769886,22.6351662 Z M87.2331245,22.6351662 C87.2363916,20.545764 88.932561,18.8544721 91.0219639,18.8572099 C93.1113668,18.8599742 94.8030776,20.5557268 94.8008516,22.6451303 C94.7986071,24.734534 93.1032722,26.426663 91.0138682,26.4249487 C88.9247546,26.419018 87.2340644,24.7242885 87.2331245,22.6351662 Z"
             id="Shape-Copy-5"
             fill="#FFFFFF" />
          <path
             d="M127.893756,76.4061256 C127.894469,79.7951891 130.642289,82.5420625 134.031352,82.5416071 C137.420416,82.5411518 140.167498,79.7935403 140.1673,76.4044767 C140.167102,73.0154132 137.419699,70.268063 134.030636,70.268063 C130.641508,70.2696065 127.894647,73.0169979 127.893756,76.4061256 L127.893756,76.4061256 Z M130.249892,76.4061256 C130.253159,74.3167234 131.949329,72.6254316 134.038731,72.6281693 C136.128134,72.6309336 137.819845,74.3266862 137.817619,76.4160898 C137.815375,78.5054934 136.12004,80.1976224 134.030636,80.1959081 C131.941522,80.1899775 130.250832,78.4952479 130.249892,76.4061256 Z"
             id="Shape-Copy-6"
             fill="#FFFFFF" />
          <g
             id="stethoscope"
             transform="translate(141.874237, 0.000000)">
            <path
               d="M38.0267924,93.0237598 C27.3060727,93.0237598 18.5841747,84.2510236 18.5841747,73.4677876 L18.5841747,71.2770528 C18.5841747,70.5113775 19.200015,69.8906293 19.959637,69.8906293 C20.719259,69.8906293 21.3350992,70.5113775 21.3350992,71.2770528 L21.3350992,73.4677876 C21.3350992,82.7220754 28.8229325,90.2509121 38.0267924,90.2509121 C47.2306523,90.2509121 54.7184855,82.7220754 54.7184855,73.4677876 L54.7184855,47.2214882 C54.7184855,41.8432724 59.059261,37.4679033 64.3949542,37.4679033 L68.242581,37.4679033 C69.0022027,37.4679033 69.6180432,38.0886515 69.6180432,38.8543272 C69.6180432,39.620003 69.0022027,40.2407512 68.242581,40.2407512 L64.3949542,40.2407512 C60.5761208,40.2407512 57.46941,43.3722208 57.46941,47.2214882 L57.46941,73.4677876 C57.46941,84.2510236 48.747512,93.0237598 38.0267924,93.0237598 L38.0267924,93.0237598 Z"
               id="Path"
               fill="#FFFFFF" />
            <g
               id="Group">
              <path
                 d="M36.4698581,27.7983757 C35.7086605,27.7983757 35.0915427,27.1809282 35.0915427,26.4193238 L35.0915427,9.11773926 C35.0915427,6.20058489 32.7160621,3.82732858 29.7962387,3.82732858 L27.7381381,3.82732858 C26.9769405,3.82732858 26.3598227,3.2098811 26.3598227,2.44827673 C26.3598227,1.68667236 26.9769405,1.06922487 27.7381381,1.06922487 L29.7962387,1.06922487 C34.2360683,1.06922487 37.8481735,4.6797665 37.8481735,9.11773926 L37.8481735,26.4193238 C37.8481735,27.1809282 37.2310558,27.7983757 36.4698581,27.7983757 Z"
                 id="path1"
                 fill="#FFFFFF" />
              <path
                 d="M2.88104675,27.5424236 C2.11984909,27.5424236 1.50273135,26.9249762 1.50273135,26.1633718 L1.50273135,9.11773926 C1.50273135,4.6797665 5.11483659,1.06922487 9.55466624,1.06922487 L11.3361848,1.06922487 C12.0973825,1.06922487 12.7145002,1.68667236 12.7145002,2.44827673 C12.7145002,3.2098811 12.0973825,3.82732858 11.3361848,3.82732858 L9.55484996,3.82732858 C6.63502665,3.82732858 4.25954593,6.20058489 4.25954593,9.11773926 L4.25954593,26.1633718 C4.25936215,26.9249762 3.6422444,27.5424236 2.88104675,27.5424236 Z"
                 id="path2"
                 fill="#FFFFFF" />
              <path
                 d="M36.4698581,23.5146729 C34.878547,23.5146729 33.5886276,24.8039944 33.5886276,26.394317 L33.5886276,37.8040404 C33.5886276,45.5164339 27.2726351,51.7824778 19.5382641,51.7074573 C11.8788735,51.6331724 5.76246105,45.2816273 5.76246105,37.6266024 L5.76246105,26.3941331 C5.76246105,24.8038105 4.4725416,23.5146729 2.88123053,23.5146729 C1.28991944,23.5146729 0,24.8038105 0,26.3941331 L0,37.5876212 C0,44.8572471 3.90724851,51.2806867 9.75130587,54.7476232 L9.75130587,62.9257684 C9.75130587,68.4651442 14.2607863,72.971885 19.8036358,72.971885 C25.346669,72.971885 29.8561495,68.4653277 29.8561495,62.9257684 L29.8561495,54.6242439 C35.5434464,51.1734885 39.3512724,44.9249126 39.3512724,37.8040404 L39.3512724,26.394317 C39.3512724,24.8039944 38.0611692,23.5146729 36.4698581,23.5146729 L36.4698581,23.5146729 Z M24.0935047,62.9259522 C24.0935047,65.2900146 22.1690088,67.2131484 19.8036358,67.2131484 C17.4382628,67.2131484 15.5137669,65.2900146 15.5137669,62.9259522 L15.5137669,57.0195651 C16.8183884,57.3042014 18.1717103,57.4588391 19.5606847,57.4667457 C21.1196514,57.4757555 22.6370847,57.301811 24.0936884,56.9664256 L24.0936884,62.9259522 L24.0935047,62.9259522 Z"
                 id="path3"
                 fill="#1598A4" />
              <path
                 d="M36.4698581,23.5148567 C35.1700148,23.5148567 34.0721407,24.3753851 33.7132274,25.5571406 C33.7937209,25.8221024 33.8378271,26.1030613 33.8378271,26.394317 L33.8378271,37.8040404 C33.8378271,44.0570293 30.9018314,49.6372247 26.3353806,53.2411469 C25.088097,54.2256061 24.3428879,55.7131433 24.3428879,57.3025466 L24.3428879,62.9257684 C24.3428879,67.5099207 21.2534398,71.3837692 17.047005,72.5846478 C17.9236136,72.8348998 18.8476362,72.971885 19.8036358,72.971885 C25.346669,72.971885 29.8561495,68.4653277 29.8561495,62.9257684 L29.8561495,54.6242439 C35.5434464,51.1734885 39.3512724,44.9249126 39.3512724,37.8038566 L39.3512724,26.3941331 C39.3512724,24.8039944 38.0611692,23.5148567 36.4698581,23.5148567 L36.4698581,23.5148567 Z"
                 id="path4"
                 fill="#0D5B63" />
              <g
                 id="g6"
                 transform="translate(9.684963, 0.000000)"
                 fill="#88DCE5">
                <path
                   d="M5.05419071,4.85150442 L2.42436491,4.85150442 C1.08537744,4.85150442 0,3.76554706 0,2.42584415 C-0.000183775543,1.08595737 1.08537744,0 2.42436491,0 L5.05419071,0 C6.39317816,0 7.47855563,1.08595737 7.47855563,2.42566027 C7.47855563,3.76554706 6.39317816,4.85150442 5.05419071,4.85150442 Z"
                   id="path5" />
                <path
                   d="M17.5566141,4.85150442 L14.9267883,4.85150442 C13.5878008,4.85150442 12.5024234,3.76554706 12.5024234,2.42584415 C12.5024234,1.08595737 13.5878008,0 14.9267883,0 L17.5566141,0 C18.8956016,0 19.9811628,1.08595737 19.9811628,2.42566027 C19.9811628,3.76554706 18.8956016,4.85150442 17.5566141,4.85150442 Z"
                   id="path6" />
              </g>
              <g
                 transform="translate(67.388045, 30.041082)"
                 id="g7">
                <ellipse
                   id="Oval"
                   fill="#88DCE5"
                   cx="8.83812592"
                   cy="8.83236743"
                   rx="8.83812592"
                   ry="8.83236743" />
                <path
                   d="M8.83812592,0 C7.87514286,0 6.94928248,0.155924796 6.08149509,0.440561099 C9.61218787,1.59822916 12.1629902,4.91677955 12.1629902,8.83236743 C12.1629902,12.7481392 9.61237159,16.0665057 6.08149509,17.2243577 C6.94928248,17.5088101 7.87514286,17.6649188 8.83812592,17.6649188 C13.7192002,17.6649188 17.6762518,13.7105335 17.6762518,8.83255128 C17.6762518,3.95438523 13.7192002,0 8.83812592,0 Z"
                   id="path7"
                   fill="#117A83" />
                <ellipse
                   id="ellipse7"
                   fill="#FFFFFF"
                   cx="8.83812592"
                   cy="8.83236743"
                   rx="2.27624195"
                   ry="2.27488394" />
              </g>
            </g>
          </g>
          <g
             id="g17"
             transform="translate(68.745702, 67.213700) scale(-1, 1) translate(-68.745702, -67.213700) translate(21.964935, 20.432965)">
            <path
               d="M18.8413108,72.8159585 L0.394372745,91.2628966 C-0.131457582,91.7887269 -0.131457582,92.6412663 0.394372745,93.1670967 C0.920203072,93.692927 1.77274248,93.692927 2.2985728,93.1670967 L20.7455108,74.7201586 L18.8413108,72.8159585 Z"
               fill="#FFFFFF"
               id="path8" />
            <polygon
               fill="#6AB6BD"
               points="80.9658377 8.66821903 86.9164628 14.6188442 75.0152125 26.4010821 69.1835998 20.4504569"
               id="polygon8" />
            <polygon
               fill="#4F8B90"
               points="78.9426251 6.76401897 82.8700377 10.6914316 71.0877999 22.4736695 67.1603872 18.5462569"
               id="polygon9" />
            <polygon
               fill="#4F8B90"
               points="75.0152125 34.2559073 63.2329746 22.4736695 77.038425 24.3778695 80.9658377 28.4242947"
               id="polygon10" />
            <polygon
               fill="#6AB6BD"
               points="65.2561872 12.5956317 77.038425 24.3778695 71.0877999 30.3284947 59.305562 18.5462569"
               id="polygon11" />
            <path
               d="M92.7480755,16.5230443 L88.8206629,12.5956317 L84.8932503,16.5230443 L88.8206629,20.4504569 C89.5222276,21.1520218 90.5447805,21.4260141 91.5031358,21.1692236 C92.4614912,20.9124331 93.2100518,20.1638724 93.4668424,19.2055171 C93.7236328,18.2471619 93.4496404,17.224609 92.7480755,16.5230443 L92.7480755,16.5230443 Z"
               fill="#4F8B90"
               id="path11" />
            <path
               d="M88.8206629,16.5230443 C89.8634624,15.4215683 89.8634624,13.6971075 88.8206629,12.5956317 L77.038425,0.813393786 C75.9539,-0.271131262 74.1955375,-0.271131262 73.1110124,0.813393786 C72.0264874,1.89791884 72.0264874,3.65628136 73.1110124,4.74080641 L84.8932503,16.5230443 C85.9947262,17.5658438 87.7191871,17.5658438 88.8206629,16.5230443 L88.8206629,16.5230443 Z"
               fill="#6AB6BD"
               id="path12" />
            <path
               d="M28.124286,59.4865581 L15.8659982,71.8638585 C14.6222393,73.5222037 14.7871552,75.8427463 16.2529391,77.3085302 C17.7187232,78.7743143 20.0392656,78.9392302 21.6976108,77.6954712 L34.0749112,65.4371833 L28.124286,59.4865581 Z"
               fill="#37878E"
               id="path13" />
            <polygon
               fill="#B5E3F9"
               points="33.0037987 72.3399085 29.0763861 68.4124959 50.1415992 39.4924575 52.0457993 53.2979079"
               id="polygon13" />
            <polygon
               fill="#C6E9F9"
               points="29.0763861 68.4124959 21.2215608 60.5576707 40.2635614 41.5156701 54.0690118 43.4198701"
               id="polygon14" />
            <polygon
               fill="#6AB6BD"
               points="52.0457993 53.2979079 48.1183867 49.3704953 65.2561872 24.3778695 73.1110124 32.3517073"
               id="polygon15" />
            <polygon
               fill="#4F8B90"
               points="61.2097621 20.4504569 69.1835998 28.4242947 48.1183867 49.3704953 40.2635614 41.5156701"
               id="polygon16" />
            <path
               d="M82.8700377,38.18332 L78.9426251,34.2559073 L75.0152125,38.18332 L78.9426251,42.1107326 C80.0441011,43.153532 81.7685619,43.153532 82.8700377,42.1107326 C83.4336226,41.6136975 83.7564866,40.8984728 83.7564866,40.1470263 C83.7564866,39.3955798 83.4336226,38.6803551 82.8700377,38.18332 L82.8700377,38.18332 Z"
               fill="#4F8B90"
               id="path16" />
            <path
               d="M78.9426251,38.18332 C79.9854246,37.081844 79.9854246,35.3573832 78.9426251,34.2559073 L55.3781494,10.6914316 C54.2936244,9.60690654 52.5352619,9.60690654 51.4507368,10.6914316 C50.3662118,11.7759566 50.3662118,13.5343191 51.4507368,14.6188442 L75.0152125,38.18332 C76.1166884,39.2261194 77.8411493,39.2261194 78.9426251,38.18332 Z"
               fill="#6AB6BD"
               id="path17" />
          </g>
          <g
             id="g22"
             transform="translate(0.000000, 126.721118)">
            <path
               d="M52.807971,3.81461869 C57.2199104,-0.498944823 64.0631915,-1.09875686 69.1582592,2.38151965 C74.253327,5.86179617 76.1836034,12.4545426 73.770166,18.1332185 C71.3567288,23.8118944 65.2705841,26.9976618 59.2288636,25.7448034 C53.1871433,24.4919449 48.8696222,19.1487919 48.9132399,12.9786918 C48.8982857,9.51883922 50.3066452,6.20505226 52.807971,3.81461869 Z"
               id="path18"
               fill="#FFFFFF" />
            <path
               d="M59.1082712,16.8734228 C54.519099,13.5801672 52.65266,7.65422318 54.5262346,2.32545682 C59.1517043,-0.880007202 65.3104507,-0.761711383 69.8094144,2.61901269 C74.3083779,5.99973678 76.1355204,11.8823981 74.3435426,17.2170756 C69.72863,20.4207936 63.574035,20.2819681 59.1082712,16.8734228 Z"
               id="Shape-2"
               fill="#FFFFFF" />
            <path
               d="M70.6779134,18.5916865 C71.87789,16.9237196 72.5194364,14.9188869 72.5109854,12.8641409 C72.5109854,7.23358053 67.9462571,2.66910955 62.3156967,2.66910955 L62.3156967,12.8641409 L70.6779134,18.5916865 Z"
               id="path19"
               fill="#E72457" />
            <g
               transform="translate(58.650068, 5.953532)"
               id="g19">
              <path
                 d="M6.30030022,0.610309338 C6.68098247,0.127897723 7.30385785,-0.0945577692 7.90401301,0.0375547721 C8.48021112,0.126606837 8.96268575,0.521358815 9.16407305,1.06851299 C9.29119969,1.62760769 9.16547708,2.21431323 8.82042031,2.67222577 L6.52940205,5.5359986 C6.05030628,6.01609297 5.34524576,6.19235811 4.69658744,5.99420225 C4.07086135,5.81139946 3.61804848,5.26802403 3.55107831,4.6195913 C3.55107831,3.81773491 3.78018013,3.70318399 6.30030022,0.610309338 Z"
                 id="Shape-3"
                 fill="#2C3E50" />
              <circle
                 id="circle19"
                 fill="#36495E"
                 cx="3.20742557"
                 cy="7.02516047"
                 r="3.20742557" />
            </g>
            <g
               transform="translate(54.526235, 64.755704)"
               id="g20">
              <path
                 d="M37.1144959,28.5231782 L14.4334151,28.5231782 C5.38389292,28.5231782 5.95664748,25.6594053 1.60371278,25.6594053 L0,7.10215741 C1.88016541,7.07593365 3.6807866,6.33931589 5.04024018,5.04024098 L5.72754566,4.12383367 C7.51765821,1.64450794 10.3469518,0.124290484 13.4024568,5.50440496e-16 L20.0464098,5.50440496e-16 C22.4064357,-0.000816522658 24.3372387,1.87917591 24.3993445,4.23838459 L24.3993445,5.72754619 L39.9782687,5.72754619 C40.7574348,5.6963546 41.5156278,5.98424572 42.0777264,6.52472517 C42.639825,7.06520462 42.9572165,7.81152925 42.9565924,8.59131902 C42.8950753,10.128031 41.6307616,11.3417721 40.0928196,11.3405412 L41.4674306,11.3405412 C42.5981917,11.4114881 43.590769,12.1178642 44.0282575,13.1629757 C44.4657459,14.2080872 44.2723682,15.4109096 43.529347,16.2662305 C42.4983888,17.2971887 41.2383287,17.0680869 40.0928196,17.0680869 C41.2630454,17.0832834 42.3062725,17.8090066 42.7274906,18.9009012 C43.2131122,19.9698396 42.9328279,21.231119 42.0401851,21.9937761 C41.0092269,23.0247343 40.0928196,22.7956325 37.2290468,22.7956325 C38.0190001,22.7764424 38.7758573,23.1128234 39.2909632,23.7120398 C39.8413745,24.2993664 40.1306231,25.0844699 40.0928196,25.8885072 C39.8709442,27.3731171 38.6150843,28.4840701 37.1144959,28.5231782 L37.1144959,28.5231782 Z"
                 id="Shape-4"
                 fill="#FCD6AC" />
              <path
                 d="M40.0928196,22.7956243 L22.9101826,22.7956243 C22.151006,22.7956243 21.5355717,22.1801982 21.5355717,21.4210215 C21.5034597,21.0370467 21.6339801,20.6572222 21.8953318,20.374091 C22.1566836,20.09096 22.5248696,19.9305193 22.9101826,19.931835 L42.9565924,19.931835 C42.9565924,21.5134778 41.6744377,22.7956243 40.0928196,22.7956243 L40.0928196,22.7956243 Z"
                 id="Shape-5"
                 fill="#F8C694" />
              <path
                 d="M24.3993445,5.72756302 L15.808026,5.72756302 C15.4227129,5.72888688 15.0545269,5.56844614 14.7931751,5.28531508 C14.5318235,5.00218401 14.4013031,4.62235953 14.4334151,4.23838459 C14.4334151,3.47920792 15.0488493,2.86377363 15.808026,2.86377363 L24.1702427,2.86377363 C24.420911,3.79635402 24.4985607,4.76697529 24.3993445,5.72756302 L24.3993445,5.72756302 Z"
                 id="Shape-6"
                 fill="#F8C694" />
              <path
                 d="M41.4674306,17.0680786 L22.9101826,17.0680786 C22.151006,17.0680786 21.5355717,16.4526526 21.5355717,15.6934759 C21.5034597,15.309501 21.6339801,14.9296765 21.8953318,14.6465454 C22.1566836,14.3634144 22.5248696,14.2029737 22.9101826,14.2042893 L44.3312034,14.2042893 C44.3312034,14.9638339 44.0294853,15.6922456 43.4924238,16.2293073 C42.9553621,16.7663688 42.2269503,17.0680786 41.4674306,17.0680786 Z"
                 id="Shape-7"
                 fill="#F8C694" />
              <path
                 d="M40.0928196,11.340544 L22.9101826,11.340544 C22.151006,11.340544 21.5355717,10.7251069 21.5355717,9.96593024 C21.5355717,9.20675357 22.151006,8.59131928 22.9101826,8.59131928 L42.9565924,8.59131928 C42.8950753,10.128031 41.6307616,11.3417721 40.0928196,11.340544 L40.0928196,11.340544 Z"
                 id="Shape-8"
                 fill="#F8C694" />
            </g>
            <g
               id="_012---Blood-Pressure"
               transform="translate(0.000000, 0.263540)">
              <path
                 d="M61.972044,69.876057 C61.0623315,70.9600343 59.7215297,71.5885352 58.3064148,71.5943207 L31.7306029,71.5943207 C30.8900831,71.5948974 30.0855275,71.2533646 29.5020927,70.6483211 C28.9186579,70.0432775 28.6065977,69.2268384 28.6377283,68.3868951 L28.6377283,63.6903077 L3.09287465,63.6903077 L3.09287465,74.8017463 C3.15528141,83.5695629 10.247635,90.6619164 19.0154516,90.7243232 L59.1082712,90.7243232 C60.0536253,90.6721349 60.9869468,90.9561892 61.7429422,91.5261796 L61.972044,69.876057 Z"
                 id="path20"
                 fill="#FCD6AC" />
              <path
                 d="M54.068031,66.7831824 C48.8170591,66.7831824 44.5603052,62.5264285 44.5603052,57.2754563 L44.5603052,25.4303027 C44.5603052,24.5445967 43.8422985,23.8265899 42.9565924,23.8265899 C42.0708864,23.8265899 41.3528796,24.5445967 41.3528796,25.4303027 L41.3528796,38.1454541 C41.3528796,39.8467783 40.6770312,41.4784209 39.4740133,42.6814388 C38.2709953,43.8844568 36.6393528,44.5603052 34.9380285,44.5603052 L29.4395847,44.5603052 L29.4395847,41.3528796 L34.9380285,41.3528796 C35.7982416,41.3853757 36.6330802,41.0578986 37.2417766,40.4492021 C37.850473,39.8405057 38.1779501,39.0056672 38.1454541,38.1454541 L38.1454541,25.4303027 C38.1454541,22.7731844 40.2994741,20.6191641 42.9565924,20.6191641 C44.2223085,20.6191641 45.4345972,21.129299 46.3187464,22.0350127 C47.2028956,22.9407266 47.684051,24.1649631 47.6531799,25.4303027 L47.6531799,57.2754563 C47.6531799,60.818281 50.5252065,63.6903077 54.068031,63.6903077 C55.7590124,63.6905872 57.3791258,63.011106 58.5640101,61.8046785 C59.7488943,60.5982508 60.3990763,58.9661585 60.3683312,57.2754563 L60.3683312,52.9225219 L63.5757568,52.9225219 L63.5757568,57.2754563 C63.5757568,62.5264285 59.3190029,66.7831824 54.068031,66.7831824 Z"
                 id="Shape-9"
                 fill="#1398A4" />
              <circle
                 id="Oval-2"
                 fill="#EBEFF0"
                 cx="61.972044"
                 cy="12.7151514"
                 r="11.1114386" />
              <path
                 d="M28.6377283,14.3188641 L28.6377283,28.6377283 L3.09287465,28.6377283 L3.09287465,14.3188641 C3.71738144,7.73185505 9.24875422,2.70010103 15.8653015,2.70010103 C22.4818487,2.70010103 28.0132214,7.73185505 28.6377283,14.3188641 Z"
                 id="Shape-10"
                 fill="#FCD6AC" />
              <rect
                 id="Rectangle-path"
                 fill="#1398A4"
                 x="0"
                 y="27.0340155"
                 width="31.8451538"
                 height="38.1912744"
                 rx="2.8" />
              <path
                 d="M57.2754566,23.8265899 L66.7831824,23.8265899 C68.5294653,23.8858365 69.9313614,25.2877325 69.9906079,27.0340155 L69.9906079,27.0340155 C69.9313614,28.7802985 68.5294653,30.1821945 66.7831824,30.2414411 L57.2754566,30.2414411 C55.5040443,30.2414411 54.068031,28.8054277 54.068031,27.0340155 L54.068031,27.0340155 C54.068031,25.2626033 55.5040443,23.8265899 57.2754566,23.8265899 Z"
                 id="Rectangle-path-2"
                 fill="#32B5B6" />
              <path
                 d="M71.5943207,42.9565924 C71.5943207,43.529347 71.4797698,43.9875506 71.4797698,44.5603052 C71.3608049,45.6875908 71.1305814,46.8003379 70.7924643,47.8822817 C70.4517815,48.9251894 69.9904524,49.924736 69.4178534,50.8606054 C68.0188513,53.7198507 65.1536141,55.5712347 61.972044,55.6717438 C58.8059462,55.5223469 55.9634485,53.685656 54.5262346,50.8606054 C53.9536356,49.924736 53.4923065,48.9251894 53.1516237,47.8822817 C52.7945898,46.8100964 52.6014951,45.6901471 52.5788691,44.5603052 C52.4269138,43.4965626 52.4269138,42.4166222 52.5788691,41.3528796 C52.6969751,40.1879408 52.9271422,39.0371057 53.2661746,37.9163522 C53.5883191,36.8849552 54.0103389,35.887454 54.5262346,34.9380285 C56.0112292,32.1736072 58.837572,30.3908371 61.972044,30.2414411 C65.1209731,30.3443383 67.9685954,32.1405308 69.4178534,34.9380285 C69.9693698,35.8850165 70.4296426,36.8822742 70.7924643,37.9163522 C71.1314968,39.0371057 71.3616638,40.1879408 71.4797698,41.3528796 C71.4797698,41.9256342 71.5943207,42.3838379 71.5943207,42.9565924 Z"
                 id="Shape-11"
                 fill="#88E1E9" />
              <path
                 d="M60.3683312,36.5417413 C60.4003042,36.9561343 60.2576425,37.3650336 59.9748303,37.6696005 C59.692018,37.9741676 59.2947921,38.1466857 58.8791693,38.1454541 L54.068031,38.1454541 C53.7794683,38.2021724 53.4812162,38.1169575 53.2661746,37.9163522 C53.5883191,36.8849552 54.0103389,35.887454 54.5262346,34.9380285 L58.8791693,34.9380285 C59.7198531,34.9982283 60.3704839,35.6989076 60.3683312,36.5417413 L60.3683312,36.5417413 Z"
                 id="Shape-12"
                 fill="#48AEB9" />
              <path
                 d="M70.7924643,37.9163522 C70.5634584,38.0907562 70.2771849,38.1725486 69.9906079,38.1454541 L65.1794696,38.1454541 C64.7541385,38.1454541 64.3462278,37.9764919 64.0454734,37.6757375 C63.7447189,37.374983 63.5757568,36.9670724 63.5757568,36.5417413 C63.5757568,36.1164102 63.7447189,35.7084995 64.0454734,35.4077451 C64.3462278,35.1069906 64.7541385,34.9380285 65.1794696,34.9380285 L69.4178534,34.9380285 C69.9693698,35.8850165 70.4296426,36.8822742 70.7924643,37.9163522 Z"
                 id="Shape-13"
                 fill="#48AEB9" />
              <path
                 d="M60.3683312,42.9565924 C60.4003042,43.3709854 60.2576425,43.7798847 59.9748303,44.0844517 C59.692018,44.3890187 59.2947921,44.5615369 58.8791693,44.5603246 L52.5788691,44.5603246 C52.4269138,43.4965626 52.4269138,42.4166222 52.5788691,41.3528602 L58.8791693,41.3528602 C59.2947921,41.351648 59.692018,41.5241661 59.9748303,41.8287332 C60.2576425,42.1333001 60.4003042,42.5421995 60.3683312,42.9565924 L60.3683312,42.9565924 Z"
                 id="Shape-14"
                 fill="#48AEB9" />
              <path
                 d="M71.5943207,42.9565924 C71.5943207,43.529347 71.4797698,43.9875506 71.4797698,44.5603052 L65.1794696,44.5603052 C64.2937635,44.5603052 63.5757568,43.8422985 63.5757568,42.9565924 C63.5757568,42.0708864 64.2937635,41.3528796 65.1794696,41.3528796 L71.4797698,41.3528796 C71.4797698,41.9256342 71.5943207,42.3838379 71.5943207,42.9565924 Z"
                 id="Shape-15"
                 fill="#48AEB9" />
              <path
                 d="M60.3683312,49.2568926 C60.4003042,49.6712856 60.2576425,50.0801849 59.9748303,50.3847519 C59.692018,50.6893189 59.2947921,50.8618371 58.8791693,50.8606248 L54.5262346,50.8606248 C53.9536356,49.924736 53.4923065,48.9251894 53.1516237,47.8822817 L58.8791693,47.8822817 C59.6776035,47.9375393 60.3130736,48.5730094 60.3683312,49.3714436 L60.3683312,49.2568926 Z"
                 id="Shape-16"
                 fill="#48AEB9" />
              <path
                 d="M70.7924643,47.8822817 C70.4517815,48.9251894 69.9904524,49.924736 69.4178534,50.8606054 L65.1794696,50.8606054 C64.7541385,50.8606054 64.3462278,50.6916433 64.0454734,50.3908888 C63.7447189,50.0901344 63.5757374,49.6822237 63.5757374,49.2568926 C63.5745251,48.8412699 63.7470433,48.4440439 64.0516103,48.1612317 C64.3561773,47.8784195 64.7650766,47.7357578 65.1794696,47.7677308 L70.7924643,47.7677308 L70.7924643,47.8822817 Z"
                 id="Shape-17"
                 fill="#48AEB9" />
              <g
                 id="g21"
                 transform="translate(49.256893, 0.000000)"
                 fill="#7E8B8C">
                <path
                   d="M12.7151514,6.30030022 C11.8723177,6.30245286 11.1716384,5.65182216 11.1114386,4.81113835 L11.1114386,1.60371278 C11.1114386,0.71800667 11.8294453,0 12.7151514,0 C13.6008574,0 14.3188836,0.71800667 14.3188836,1.60371278 L14.3188836,4.81113835 C14.3200958,5.22676115 14.1475776,5.62398709 13.8430106,5.90679932 C13.5384437,6.18961155 13.1295443,6.33227317 12.7151514,6.30030022 L12.7151514,6.30030022 Z"
                   id="Shape-18" />
                <path
                   d="M7.10215661,8.7058694 C6.6869802,8.65531361 6.29215853,8.49738494 5.95664748,8.24766574 L4.46748561,6.64395296 C3.89984489,6.0294979 3.89984489,5.08194067 4.46748561,4.46748561 C4.75040641,4.126889 5.17021915,3.92985509 5.61299474,3.92985509 C6.05577033,3.92985509 6.47558307,4.126889 6.75850387,4.46748561 L8.24766574,5.95664748 C8.69265912,6.41066192 8.82746067,7.08466964 8.59131848,7.67491118 C8.35507144,8.2928072 7.76366625,8.70224156 7.10215661,8.7058694 L7.10215661,8.7058694 Z"
                   id="Shape-19" />
                <path
                   d="M4.81113835,14.3188641 L1.60371278,14.3188641 C0.71800667,14.3188641 0,13.6008574 0,12.7151514 C0,11.8294453 0.71800667,11.1114386 1.60371278,11.1114386 L4.81113835,11.1114386 C5.69684438,11.1114386 6.41485094,11.8294453 6.41485094,12.7151514 C6.41485094,13.6008574 5.69684438,14.3188641 4.81113835,14.3188641 Z"
                   id="Shape-20" />
                <path
                   d="M5.61299474,21.4210208 C4.97064366,21.4698072 4.36975253,21.100028 4.12383287,20.5046134 C3.88769069,19.9143719 4.02249223,19.2403642 4.46748561,18.7863498 L5.95664748,17.182637 C6.58929473,16.5499899 7.61501844,16.5499899 8.24766561,17.1826371 C8.88031279,17.8152843 8.88031284,18.8410079 8.24766574,19.4736552 L6.75850387,20.9628171 C6.46086981,21.2739807 6.0431184,21.4410813 5.61299474,21.4210208 L5.61299474,21.4210208 Z"
                   id="Shape-21" />
                <path
                   d="M19.9318589,21.4210208 C19.5017352,21.4410813 19.0839838,21.2739807 18.7863498,20.9628171 L17.2971879,19.4736552 C16.9565912,19.1907344 16.7595574,18.7709217 16.7595574,18.3281461 C16.7595574,17.8853705 16.9565912,17.4655578 17.2971879,17.182637 C17.911643,16.6149963 18.8592001,16.6149963 19.4736552,17.182637 L21.077368,18.7863498 C21.5223614,19.2403642 21.6571629,19.9143719 21.4210208,20.5046134 C21.1494587,21.0776248 20.5657661,21.4368203 19.9318589,21.4210208 L19.9318589,21.4210208 Z"
                   id="Shape-22" />
                <path
                   d="M23.9411408,14.3188641 L20.7337153,14.3188641 C19.8480092,14.3188641 19.1300025,13.6008574 19.1300025,12.7151514 C19.1300025,11.8294453 19.8480092,11.1114386 20.7337153,11.1114386 L23.9411408,11.1114386 C24.8268469,11.1114386 25.5448534,11.8294453 25.5448534,12.7151514 C25.5448534,13.6008574 24.8268469,14.3188641 23.9411408,14.3188641 L23.9411408,14.3188641 Z"
                   id="Shape-23" />
                <path
                   d="M18.3281461,8.7058694 C17.7089673,8.65738326 17.1734519,8.25574676 16.9535351,7.67491118 C16.6408716,7.09390676 16.7851122,6.37270407 17.2971879,5.95664748 L18.7863498,4.46748561 C19.2059786,4.04814677 19.8122363,3.87493029 20.3900625,4.00928196 C20.9199381,4.1697819 21.3170298,4.61099504 21.4210208,5.15479109 C21.6183976,5.67498273 21.4827345,6.26285592 21.077368,6.64395296 L19.4736552,8.24766574 C19.1617098,8.53694405 18.7535399,8.70021203 18.3281461,8.7058694 Z"
                   id="Shape-24" />
              </g>
              <path
                 d="M61.972044,14.3188641 C61.3528652,14.2703781 60.8173498,13.8687415 60.597433,13.2879059 C60.2847695,12.7069015 60.4290101,11.9856988 60.9410858,11.5696422 L62.4302477,9.96592944 C62.8764323,9.59415481 63.4587152,9.42778823 64.0339604,9.50772579 C64.5729816,9.69093137 64.9962639,10.1142138 65.1794696,10.6532349 C65.3138212,11.2310611 65.1406047,11.8373188 64.7212659,12.2569477 L63.1175531,13.8606605 C62.8056077,14.1499388 62.3974378,14.3132068 61.972044,14.3188641 L61.972044,14.3188641 Z"
                 id="Shape-25"
                 fill="#E64B3C" />
              <path
                 d="M6.30030022,60.4828821 C5.41459411,60.4828821 4.69658744,59.7648754 4.69658744,58.8791693 L4.69658744,33.4488666 C4.69658744,32.5631606 5.41459411,31.8451538 6.30030022,31.8451538 C7.18600634,31.8451538 7.90401301,32.5631606 7.90401301,33.4488666 L7.90401301,58.8791693 C7.90401301,59.7648754 7.18600634,60.4828821 6.30030022,60.4828821 Z"
                 id="Shape-26"
                 fill="#32B5B6" />
              <path
                 d="M25.4303027,60.4828821 C24.5445967,60.4828821 23.8265899,59.7648754 23.8265899,58.8791693 L23.8265899,33.4488666 C23.8265899,32.5631606 24.5445967,31.8451538 25.4303027,31.8451538 C26.3160088,31.8451538 27.0340155,32.5631606 27.0340155,33.4488666 L27.0340155,58.8791693 C27.0340155,59.3045004 26.8650534,59.7124111 26.5642989,60.0131655 C26.2635445,60.31392 25.8556338,60.4828821 25.4303027,60.4828821 Z"
                 id="Shape-27"
                 fill="#32B5B6" />
              <path
                 d="M19.0154516,44.5603052 L12.7151514,44.5603052 C12.1421999,44.5603052 11.6127709,44.2546394 11.3262952,43.7584488 C11.0398195,43.2622584 11.0398195,42.6509265 11.3262952,42.154736 C11.6127709,41.6585455 12.1421999,41.3528796 12.7151514,41.3528796 L19.0154516,41.3528796 C19.5884031,41.3528796 20.1178321,41.6585455 20.4043077,42.154736 C20.6907835,42.6509265 20.6907835,43.2622584 20.4043077,43.7584488 C20.1178321,44.2546394 19.5884031,44.5603052 19.0154516,44.5603052 Z"
                 id="Shape-28"
                 fill="#32B5B6" />
              <path
                 d="M17.4117388,50.8606054 L14.3188641,50.8606054 C13.4331581,50.8606054 12.7151319,50.1425987 12.7151319,49.2568926 C12.7139197,48.8412699 12.8864378,48.4440439 13.1910049,48.1612317 C13.4955718,47.8784195 13.9044712,47.7357578 14.3188641,47.7677308 L17.4117388,47.7677308 C17.8261318,47.7357578 18.2350311,47.8784195 18.539598,48.1612317 C18.8441651,48.4440439 19.0166832,48.8412699 19.015471,49.2568926 C19.015471,50.1425987 18.2974449,50.8606054 17.4117388,50.8606054 Z"
                 id="Shape-29"
                 fill="#32B5B6" />
              <path
                 d="M61.972044,25.4303027 C54.9496598,25.4303027 49.2568926,19.7375355 49.2568926,12.7151514 C49.2568926,5.69276717 54.9496598,0 61.972044,0 C68.9944282,0 74.6871954,5.69276717 74.6871954,12.7151514 C74.6871954,19.7375355 68.9944282,25.4303027 61.972044,25.4303027 L61.972044,25.4303027 Z M61.972044,3.20742557 C56.7210721,3.20742557 52.4643182,7.4641794 52.4643182,12.7151514 C52.4643182,17.9661233 56.7210721,22.2228771 61.972044,22.2228771 C67.2230159,22.2228771 71.4797698,17.9661233 71.4797698,12.7151514 C71.4797698,7.4641794 67.2230159,3.20742557 61.972044,3.20742557 L61.972044,3.20742557 Z"
                 id="Shape-30"
                 fill="#FFFFFF" />
            </g>
          </g>
          <g
             id="g47"
             transform="translate(251.484199, 113.994434) scale(-1, 1) translate(-251.484199, -113.994434) translate(210.976834, 76.752492)">
            <g
               id="Group-4"
               transform="translate(25.366441, 0.000000)">
              <path
                 d="M47.6985333,69.5603611 L7.94975556,69.5603611 C5.75449118,69.5603611 3.97487778,67.7807477 3.97487778,65.5854833 L3.97487778,13.9120722 L51.6734111,13.9120722 L51.6734111,65.5854833 C51.6734111,67.7807477 49.8937977,69.5603611 47.6985333,69.5603611 Z"
                 id="path22"
                 fill="#E0E0DE" />
              <polygon
                 id="polygon22"
                 fill="#117A83"
                 points="0 0 55.6482889 0 55.6482889 13.9120722 0 13.9120722" />
              <g
                 id="g28"
                 transform="translate(5.962317, 5.962317)"
                 fill="#0D5B63">
                <polygon
                   id="polygon23"
                   points="0 0 3.97487778 0 3.97487778 7.94975556 0 7.94975556" />
                <polygon
                   id="polygon24"
                   points="7.94975556 0 11.9246333 0 11.9246333 7.94975556 7.94975556 7.94975556" />
                <polygon
                   id="polygon25"
                   points="15.8995111 0 19.8743889 0 19.8743889 7.94975556 15.8995111 7.94975556" />
                <polygon
                   id="polygon26"
                   points="23.8492667 0 27.8241445 0 27.8241445 7.94975556 23.8492667 7.94975556" />
                <polygon
                   id="polygon27"
                   points="31.7990222 0 35.7739 0 35.7739 7.94975556 31.7990222 7.94975556" />
                <polygon
                   id="polygon28"
                   points="39.7487778 0 43.7236556 0 43.7236556 7.94975556 39.7487778 7.94975556" />
              </g>
              <path
                 d="M3.97487778,33.7864611 L51.6734111,33.7864611 L51.6734111,65.5854833 C51.6734111,67.7807477 49.8937977,69.5603611 47.6985333,69.5603611 L7.94975556,69.5603611 C5.75449118,69.5603611 3.97487778,67.7807477 3.97487778,65.5854833 L3.97487778,33.7864611 Z"
                 id="path28"
                 fill="#F7BB3C" />
              <polygon
                 id="polygon29"
                 fill="#FFFFFF"
                 points="25.8367056 25.8367056 51.6734111 25.8367056 51.6734111 49.6859722 25.8367056 49.6859722" />
              <polygon
                 id="polygon30"
                 fill="#BAB6FF"
                 points="31.7990222 39.7487778 51.6734111 39.7487778 51.6734111 43.7236556 31.7990222 43.7236556" />
              <polygon
                 id="polygon31"
                 fill="#BAB6FF"
                 points="31.7990222 31.7990222 35.7739 31.7990222 35.7739 35.7739 31.7990222 35.7739" />
              <polygon
                 id="polygon32"
                 fill="#BAB6FF"
                 points="39.7487778 31.7990222 51.6734111 31.7990222 51.6734111 35.7739 39.7487778 35.7739" />
              <polygon
                 id="polygon33"
                 fill="#FFC361"
                 points="9.93719445 33.7864611 13.9120722 33.7864611 13.9120722 43.7236556 9.93719445 43.7236556" />
              <polygon
                 id="polygon34"
                 fill="#F2F2F2"
                 points="9.93719445 19.8743889 13.9120722 19.8743889 13.9120722 23.8492667 9.93719445 23.8492667" />
              <polygon
                 id="polygon35"
                 fill="#F2F2F2"
                 points="9.93719445 27.8241445 13.9120722 27.8241445 13.9120722 33.7864611 9.93719445 33.7864611" />
              <polygon
                 id="polygon36"
                 fill="#D9D9D7"
                 points="3.97487778 13.9120722 51.6734111 13.9120722 51.6734111 19.8743889 3.97487778 19.8743889" />
            </g>
            <g
               id="g46"
               transform="translate(0.000000, 4.981976)">
              <polygon
                 fill="#C60606"
                 points="24.0950527 12.5755056 32.1587357 20.6391886 28.894864 28.894864 20.6391886 32.2547319 12.5755056 24.0950527"
                 id="polygon37" />
              <polygon
                 fill="#B70505"
                 points="28.894864 28.894864 20.6391886 32.2547319 12.5755056 24.0950527 18.3352791 18.3352791"
                 id="polygon38" />
              <polygon
                 fill="#F4EFEA"
                 points="50.7820035 39.2624564 47.614128 47.614128 39.2624564 50.8779997 26.3029659 37.9185092 29.3748451 29.4708413 37.9185092 26.3989621"
                 id="polygon39" />
              <polygon
                 fill="#E9DFDA"
                 points="39.2624564 50.8779997 26.3029659 37.9185092 29.3748451 29.4708413 47.614128 47.614128"
                 id="polygon40" />
              <path
                 d="M67.1013619,55.5818148 C69.4266123,57.9151054 70.1208304,61.4176853 68.8613289,64.4614806 C67.6018273,67.5052761 64.6356693,69.4932176 61.3415883,69.5013414 C59.1774028,69.5066378 57.1018955,68.6418432 55.5818148,67.1013619 L45.4062148,56.9257619 L47.9981129,48.0941092 L56.9257619,45.4062148 L67.1013619,55.5818148 Z"
                 fill="#C60606"
                 id="path40" />
              <path
                 d="M67.1013619,67.1013619 C65.5940101,68.6606099 63.5101364,69.5288906 61.3415883,69.5012675 C59.1774028,69.5066378 57.1018955,68.6418432 55.5818148,67.1013619 L45.4062148,56.9257619 L47.9981129,48.0941092 L67.1013619,67.1013619 Z"
                 fill="#B70505"
                 id="path41" />
              <polygon
                 fill="#C4E1E6"
                 points="56.9257619 45.4062148 50.7820035 39.2624564 39.2624564 50.8779997 45.4062148 56.9257619"
                 id="polygon41" />
              <polygon
                 fill="#C4E1E6"
                 points="37.9185092 26.3989621 32.1587357 20.6391886 20.6391886 32.2547319 26.3029659 37.9185092"
                 id="polygon42" />
              <polygon
                 fill="#1398A4"
                 points="11.039566 28.5108791 28.5108791 11.039566 17.4713131 0 0 17.4713131"
                 id="polygon43" />
              <polygon
                 fill="#71A5B2"
                 points="51.1659884 51.1659884 45.0222299 45.0222299 39.2624564 50.8779997 45.4062148 56.9257619"
                 id="polygon44" />
              <polygon
                 fill="#71A5B2"
                 points="32.1587357 32.1587357 26.3989621 26.3989621 20.6391886 32.2547319 26.3029659 37.9185092"
                 id="polygon45" />
              <polygon
                 fill="#117A83"
                 points="19.7752225 19.7752225 8.73565655 8.73565655 0 17.4713131 11.039566 28.5108791"
                 id="polygon46" />
            </g>
          </g>
          <g
             id="biopsy5"
             transform="translate(112.252444, 104.455641)">
            <path
               d="M39.7531692,74.6917278 L39.7531692,79.9977788 C39.7531692,81.0671905 40.6191514,81.9331727 41.6877592,81.9331727 L58.6109983,81.9331727 L58.6109983,74.6917278 L39.7531692,74.6917278 Z"
               id="path47"
               fill="#FFFFFF" />
            <path
               d="M46.0200825,79.9985829 L46.0200825,74.6917278 L39.7523651,74.6917278 L39.7523651,79.9985829 C39.7523651,81.0671905 40.6191514,81.9331727 41.6877592,81.9331727 L47.9554765,81.9331727 C46.8868689,81.9331727 46.0200825,81.0671905 46.0200825,79.9985829 Z"
               id="path48"
               fill="#E8E8E8" />
            <polygon
               id="polygon48"
               fill="#D5D5D5"
               points="58.1928825 74.6917278 58.1928825 81.9331727 65.3016562 91.3246981 69.591364 91.3246981 69.591364 74.6917278" />
            <polygon
               id="polygon49"
               fill="#E8E8E8"
               points="64.459796 74.6917278 58.1928825 74.6917278 58.1928825 81.9331727 64.459796 90.2126709" />
            <path
               d="M76.762855,49.2984261 L76.762855,57.692102 L86.2082531,57.692102 L86.2082531,49.2984261 C86.2082531,43.6007934 83.6553341,38.2931343 79.2032044,34.7367372 L73.6285941,30.2846075 L70.3383442,39.5788406 C70.3230668,39.6222602 70.3053772,39.6632678 70.2868838,39.7050794 L73.3077708,42.1180903 C75.5036831,43.8717646 76.762855,46.4882051 76.762855,49.2984261 Z"
               id="path49"
               fill="#FFFFFF" />
            <path
               d="M78.2527947,41.1491872 L71.6819432,35.7852432 L70.3391482,39.5788406 C70.3230668,39.6222602 70.3053772,39.6632678 70.2868838,39.7050794 L73.3085748,42.1180903 C75.5036831,43.8717646 76.762855,46.4882051 76.762855,49.2984261 L76.762855,57.692102 L81.707075,57.692102 L81.707075,49.2984261 C81.707075,46.4882051 80.4479031,42.9020575 78.2527947,41.1491872 L78.2527947,41.1491872 Z"
               id="path50"
               fill="#E8E8E8" />
            <path
               d="M73.1927889,26.4210562 L69.0823884,24.9656913 L63.935543,39.5056703 L68.0459435,40.9610352 C69.0011775,41.2987439 70.0496834,40.7986132 70.3881963,39.8433792 L74.3104446,28.762505 C74.6481538,27.8080751 74.1480228,26.7595692 73.1927889,26.4210562 Z"
               id="path51"
               fill="#FFFFFF" />
            <path
               d="M69.6331755,35.9597261 L65.6851971,34.5622543 L63.935543,39.5056703 L68.0459435,40.9610352 C69.0011775,41.2987439 70.0496834,40.7986132 70.3881963,39.8433792 L71.9866854,35.327728 C71.4246412,35.9854563 70.4975497,36.2660765 69.6331755,35.9597261 L69.6331755,35.9597261 Z"
               id="path52"
               fill="#E8E8E8" />
            <path
               d="M54.7345819,45.7412251 C52.7509438,51.4219722 49.4100372,55.8355066 44.5590892,59.2166167 L43.9978492,60.7620372 C43.6657686,61.6987775 44.1562508,62.7263777 45.092991,63.0584581 L50.6056878,65.0099335 C51.5424283,65.3412099 52.5708323,64.8507278 52.9021087,63.9147915 L58.8192522,47.199002 L54.7345819,45.7412251 Z"
               id="path53"
               fill="#1598A4" />
            <path
               d="M54.7337779,58.7389997 L58.8192522,47.199002 L54.7345819,45.7412251 C52.7509438,51.4219722 49.4100372,55.8355066 44.5582852,59.2166167 L43.9970452,60.7620372 C43.6657686,61.6987775 44.1562508,62.7263777 45.092187,63.0584581 L48.7498966,64.353009 C50.9594781,62.7231614 52.9688465,60.8376198 54.7337779,58.7389997 L54.7337779,58.7389997 Z"
               id="path54"
               fill="#23B5C2" />
            <path
               d="M55.2781325,62.6628562 C55.1044536,62.6628562 54.9275585,62.6339097 54.7546836,62.5728005 L44.1401694,58.8153863 C43.3248433,58.5259215 42.8970789,57.6309926 43.1865437,56.8148627 C43.4752043,55.9995367 44.3701332,55.571772 45.186263,55.8612368 L55.8007775,59.618651 C56.6169073,59.9073118 57.043868,60.8022405 56.7552072,61.6183706 C56.5276558,62.2616257 55.9229959,62.6628562 55.2781325,62.6628562 L55.2781325,62.6628562 Z"
               id="path55"
               fill="#1598A4" />
            <polygon
               id="polygon55"
               fill="#52586D"
               points="62.8347725 10.5029032 65.8066113 2.10842327 73.9598708 4.99503071 70.9888359 13.3887066" />
            <polygon
               id="polygon56"
               fill="#434A5E"
               points="62.8339685 10.5020989 65.8058073 2.10761904 70.3270871 3.70852038 67.3560523 12.1030003" />
            <path
               d="M74.9802342,6.98751348 L63.842271,3.04435932 C63.026141,2.75569872 62.5991803,1.8599658 62.8878411,1.04463999 C63.1765019,0.228509946 64.0722347,-0.198450721 64.8875607,0.0902100852 L76.0263279,4.03336424 C76.8416539,4.32202505 77.2686143,5.21775776 76.9799535,6.03308379 C76.6912929,6.84921383 75.79556,7.27617429 74.9802342,6.98751348 Z"
               id="path56"
               fill="#707487" />
            <path
               d="M69.3155685,3.39975791 C69.5471403,2.74524588 70.0947112,2.29577128 70.7259053,2.15747142 L64.8875607,0.0902100852 C64.0722347,-0.198450721 63.1765019,0.228509946 62.8878411,1.04463999 C62.5991803,1.8599658 63.026141,2.75569872 63.842271,3.04435932 L69.4804025,5.04086259 C69.194154,4.56244151 69.1153551,3.96582245 69.3155685,3.39975791 L69.3155685,3.39975791 Z"
               id="path57"
               fill="#52586D" />
            <path
               d="M60.3839703,76.2580541 L37.5620813,76.2580541 C36.6960991,76.2580541 35.994951,75.556906 35.994951,74.6917278 C35.994951,73.8257455 36.6960991,73.1245974 37.5620813,73.1245974 L60.3839703,73.1245974 C61.2491487,73.1245974 61.9502968,73.8257455 61.9502968,74.6917278 C61.9502968,75.556906 61.2491487,76.2580541 60.3839703,76.2580541 Z"
               id="path58"
               fill="#117A83" />
            <path
               d="M41.0839033,97.7315195 L41.0839033,101.622409 C41.0839033,103.704144 42.7708399,105.39108 44.8525746,105.39108 L89.0618938,105.39108 C91.1428242,105.39108 92.8297608,103.704144 92.8297608,101.622409 L92.8297608,97.7315195 L41.0839033,97.7315195 Z"
               id="path59"
               fill="#E8E8E8" />
            <path
               d="M47.3516207,101.622409 L47.3516207,97.7307155 L41.0839033,97.7307155 L41.0839033,101.622409 C41.0839033,103.70334 42.7708399,105.39108 44.8525746,105.39108 L51.1194879,105.39108 C49.0385574,105.39108 47.3516207,103.704144 47.3516207,101.622409 L47.3516207,101.622409 Z"
               id="path60"
               fill="#D5D5D5" />
            <path
               d="M93.5293009,91.3246981 L93.5293009,59.8992712 C93.5293009,58.3409855 92.2540476,57.0657322 90.6957619,57.0657322 L72.0075911,57.0657322 C70.4485016,57.0657322 69.1732481,58.3409855 69.1732481,59.8992712 L69.1732481,91.3246981 L93.5293009,91.3246981 Z"
               id="path61"
               fill="#FFFFFF" />
            <path
               d="M78.2745047,57.0657322 L72.0075911,57.0657322 C70.4485016,57.0657322 69.1732481,58.3409855 69.1732481,59.8992712 L69.1732481,91.3246981 L75.4409657,91.3246981 L75.4409657,59.8992712 C75.4409657,58.3409855 76.7162189,57.0657322 78.2745047,57.0657322 L78.2745047,57.0657322 Z"
               id="path62"
               fill="#E8E8E8" />
            <path
               d="M71.2694559,13.3525235 L61.5313768,9.90467586 C60.531919,9.55088552 59.4351691,10.0743343 59.0813788,11.073792 L53.9642838,25.555074 C55.5064881,29.0447331 56.0918503,32.4692628 56.0918503,36.5233786 C56.0918503,39.7806618 55.4630683,43.0532225 54.4451171,45.9671684 L59.1617855,47.4892709 C60.1604392,47.8430612 61.2571893,47.3196123 61.6109796,46.3201547 L72.4385721,15.8017175 C72.7923624,14.8030637 72.2689137,13.7063139 71.2694559,13.3525235 L71.2694559,13.3525235 Z"
               id="path63"
               fill="#F7BB3C" />
            <path
               d="M56.916021,17.2024055 L53.9642838,25.555074 C55.5064881,29.0447331 56.0918503,32.4692628 56.0918503,36.5233786 C56.0918503,39.7806618 55.4630683,43.0524185 54.4451171,45.9671684 L59.1617855,47.4892709 C59.9151983,47.7562218 60.7240915,47.5230419 61.2282428,46.9642139 C62.2743365,43.6699434 62.840401,40.1650068 62.840401,36.5290071 C62.839597,29.3752055 60.6541375,22.722339 56.916021,17.2024055 L56.916021,17.2024055 Z"
               id="path64"
               fill="#E0A833" />
            <path
               d="M96.8509098,90.9065822 L37.0627545,90.9065822 C36.0279177,90.9065822 35.1892738,91.7460304 35.1892738,92.780867 L35.1892738,96.2753508 C35.1892738,97.3101876 36.0279177,98.1488313 37.0627545,98.1488313 L96.8509098,98.1488313 C97.8857464,98.1488313 98.7243904,97.3101876 98.7243904,96.2753508 L98.7243904,92.780867 C98.7243904,91.7460304 97.8857464,90.9065822 96.8509098,90.9065822 L96.8509098,90.9065822 Z"
               id="path65"
               fill="#FFFFFF" />
            <path
               d="M96.8509098,93.8341974 L37.0627545,93.8341974 C36.1694339,93.8341974 35.4232579,93.2078277 35.2359099,92.3707919 C35.2061592,92.5026592 35.1892738,92.6393509 35.1892738,92.780867 L35.1892738,96.2753508 C35.1892738,97.3101876 36.0279177,98.1488313 37.0627545,98.1488313 L96.8509098,98.1488313 C97.8857464,98.1488313 98.7243904,97.3101876 98.7243904,96.2753508 L98.7243904,92.780867 C98.7243904,92.6393509 98.707505,92.5026592 98.6777545,92.3707919 C98.4912105,93.2078277 97.7450345,93.8341974 96.8509098,93.8341974 Z"
               id="path66"
               fill="#D5D5D5" />
            <path
               d="M28.2863418,64.8153487 C12.6890121,64.8153487 0,52.1263366 0,36.5290071 C0,20.9316774 12.6890121,8.24266527 28.2863418,8.24266527 C43.8828673,8.24266527 56.5726837,20.9316774 56.5726837,36.5290071 C56.5726837,52.1263366 43.8836713,64.8153487 28.2863418,64.8153487 Z"
               id="path67"
               fill="#FFFFFF" />
            <path
               d="M5.71049782,36.5290071 C5.71049782,21.8957561 16.8798195,9.8218567 31.1415905,8.38578945 C30.202438,8.29171343 29.2496163,8.24266527 28.2863418,8.24266527 C12.6890121,8.24266527 0,20.9316774 0,36.5290071 C0,52.1263366 12.6890121,64.8153487 28.2863418,64.8153487 C29.2496163,64.8153487 30.202438,64.7663006 31.1415905,64.6714205 C16.8798195,63.2361573 5.71049782,51.1630621 5.71049782,36.5290071 L5.71049782,36.5290071 Z"
               id="path68"
               fill="#FFFFFF" />
            <path
               d="M28.2863418,13.161959 C15.4011367,13.161959 4.91848975,23.6446062 4.91848975,36.5290071 C4.91848975,49.413408 15.4011367,59.896859 28.2863418,59.896859 C41.1707428,59.896859 51.6533897,49.4142121 51.6533897,36.5290071 C51.6533897,23.6446062 41.1707428,13.161959 28.2863418,13.161959 Z"
               id="path69"
               fill="#E5E7FF" />
            <path
               d="M10.6691909,36.5290071 C10.6691909,24.6175295 19.6281273,14.7604481 31.1608882,13.3388542 C30.2185196,13.2222643 29.2592652,13.161959 28.2863418,13.161959 C15.4011367,13.161959 4.91848975,23.6446062 4.91848975,36.5290071 C4.91848975,49.413408 15.4011367,59.896055 28.2863418,59.896055 C29.2592652,59.896055 30.2185196,59.8357497 31.1608882,59.7191598 C19.6281273,58.2983699 10.6691909,48.4404845 10.6691909,36.5290071 Z"
               id="path70"
               fill="#B6B0FA" />
            <path
               d="M33.1855339,47.8478857 C33.1855339,50.7280606 30.8513217,53.0622729 27.9719508,53.0622729 C25.0917759,53.0622729 22.7575637,50.7280606 22.7575637,47.8478857 C22.7575637,44.9685149 25.0917759,42.6343026 27.9719508,42.6343026 C30.8513217,42.6343026 33.1855339,44.9685149 33.1855339,47.8478857 Z"
               id="path71"
               fill="#B6B0FA" />
            <path
               d="M28.5074608,47.8478857 C28.5074608,46.0314939 29.4377686,44.4322008 30.8464974,43.4986766 C30.0223266,42.9527139 29.0341259,42.6343026 27.9719508,42.6343026 C25.0917759,42.6343026 22.7575637,44.9685149 22.7575637,47.8478857 C22.7575637,50.7280606 25.0917759,53.0622729 27.9719508,53.0622729 C29.0341259,53.0622729 30.0223266,52.7438616 30.8464974,52.1970947 C29.4377686,51.2643747 28.5074608,49.6650816 28.5074608,47.8478857 Z"
               id="path72"
               fill="#978EFF" />
            <path
               d="M39.0890083,36.9278253 C39.0890083,38.5584769 37.7671187,39.8795623 36.1372711,39.8795623 C34.5074233,39.8795623 33.1855339,38.5584769 33.1855339,36.9278253 C33.1855339,35.2979775 34.5074233,33.9768921 36.1372711,33.9768921 C37.7671187,33.9768921 39.0890083,35.2979775 39.0890083,36.9278253 Z"
               id="path73"
               fill="#B6B0FA" />
            <path
               d="M37.8177751,36.9278253 C37.8177751,36.237934 38.0565836,35.6051317 38.4529897,35.1025887 C37.9126554,34.4175219 37.0772277,33.9768921 36.1372711,33.9768921 C34.5066193,33.9768921 33.1855339,35.2979775 33.1855339,36.9286293 C33.1855339,38.5584769 34.5066193,39.8795623 36.1372711,39.8795623 C37.0772277,39.8795623 37.9126554,39.4389325 38.4529897,38.7538658 C38.0565836,38.2513227 37.8177751,37.6177164 37.8177751,36.9278253 Z"
               id="path74"
               fill="#978EFF" />
            <path
               d="M30.1405247,30.7766977 C30.1405247,34.0621233 27.4766443,36.7260039 24.1912187,36.7260039 C20.9057928,36.7260039 18.2419124,34.0621233 18.2419124,30.7766977 C18.2419124,27.491272 20.9057928,24.8273914 24.1912187,24.8273914 C27.4766443,24.8273914 30.1405247,27.491272 30.1405247,30.7766977 Z"
               id="path75"
               fill="#B6B0FA" />
            <path
               d="M23.9918096,30.7766977 C23.9918096,28.5341494 25.2332921,26.58187 27.0657651,25.5679391 C26.214256,25.0967546 25.2340961,24.8273914 24.1912187,24.8273914 C20.9049888,24.8273914 18.2419124,27.491272 18.2419124,30.7766977 C18.2419124,34.0621233 20.9057928,36.7260039 24.1912187,36.7260039 C25.2340961,36.7260039 26.214256,36.4566408 27.0657651,35.9854563 C25.2332921,34.9715254 23.9918096,33.019246 23.9918096,30.7766977 Z"
               id="path76"
               fill="#978EFF" />
            <path
               d="M18.0449154,42.1912606 C18.0449154,43.5766714 16.9224353,44.6999557 15.5370245,44.6999557 C14.1508096,44.6999557 13.0283293,43.5766714 13.0283293,42.1912606 C13.0283293,40.8058497 14.1508096,39.6825654 15.5370245,39.6825654 C16.9224353,39.6825654 18.0449154,40.8058497 18.0449154,42.1912606 Z"
               id="path77"
               fill="#B6B0FA" />
            <path
               d="M41.7544967,25.5655268 C41.7544967,27.4398116 40.2348065,28.9595019 38.3605217,28.9595019 C36.4862369,28.9595019 34.9665467,27.4398116 34.9665467,25.5655268 C34.9665467,23.690438 36.4862369,22.1715518 38.3605217,22.1715518 C40.2348065,22.1715518 41.7544967,23.690438 41.7544967,25.5655268 Z"
               id="path78"
               fill="#B6B0FA" />
            <g
               id="g80"
               transform="translate(34.966547, 22.170748)">
              <path
                 d="M5.74989715,3.39477923 C5.74989715,2.73303043 5.94206948,2.11872175 6.26932559,1.59688105 C5.66868603,0.639234871 4.60731501,0 3.39397501,0 C1.51969022,0 0,1.51969043 0,3.39397501 C0,5.26906402 1.51969022,6.78795022 3.39397501,6.78795022 C4.60731501,6.78795022 5.66868603,6.14951937 6.26932559,5.1918734 C5.94206948,4.67083672 5.74989715,4.05572381 5.74989715,3.39477923 Z"
                 id="path79"
                 fill="#978EFF" />
              <path
                 d="M2.98148769,24.5393805 C2.42024745,23.9781403 2.42024745,23.0679344 2.98148769,22.5066942 L3.99139829,21.4967836 C4.55263832,20.9355433 5.46284438,20.9355433 6.02408461,21.4975876 C6.58532464,22.0588278 6.58532464,22.9690339 6.02408461,23.5302739 L5.01497802,24.5401845 C4.45293377,25.1006207 3.54272771,25.1014247 2.98148769,24.5393805 Z"
                 id="path80"
                 fill="#B6B0FA" />
            </g>
          </g>
        </g>
        <polygon
           id="polygon80"
           fill="#010100"
           points="377 394.1803 377 396.1803 60.2128 396.1803 60.2128 394.1803" />
        <g
           id="g85"
           transform="translate(299.781534, 374.766358)">
          <circle
             id="circle80"
             stroke="#010100"
             stroke-width="3"
             fill="#88324C"
             cx="21.2081662"
             cy="21.2071423"
             r="8.1711" />
          <g
             id="g84">
            <g
               id="g83">
              <polygon
                 id="polygon81"
                 fill="#4F4F4F"
                 points="37.1987033 33.9400055 38.5937033 35.3340055 40.2157033 36.9650055 40.8487033 37.5930055 37.5927033 40.8460055 33.9397033 37.1980055" />
              <path
                 d="M37.5713033,44.1636055 L48.7974033,55.3900055 C49.9752187,56.5682317 51.6921411,57.0286006 53.3014226,56.5976957 C54.9107041,56.1667908 56.1678565,54.9100768 56.5993226,53.3009457 C57.0307887,51.6918146 56.5710187,49.9747317 55.3932033,48.7965055 L44.1659033,37.5705055 L37.5713033,44.1636055 Z"
                 id="Path-2"
                 fill="#F6BA3A" />
              <path
                 d="M39.1227033,42.6142055 L39.1227033,42.6142055 L38.2087033,43.5265055 L49.4365033,54.7543055 C50.9076034,56.2184918 53.2854033,56.2184918 54.7565033,54.7543055 C54.8754129,54.6316167 54.9422137,54.467661 54.9429628,54.2968055 C54.9446931,54.0357101 54.788513,53.7994228 54.5476014,53.6987469 C54.3066899,53.598071 54.0288234,53.6529723 53.8443033,53.8377055 C52.8794023,54.8018331 51.3162785,54.8033538 50.3495033,53.8411055 L39.1227033,42.6142055 Z"
                 id="Path-3"
                 fill="#F9CF75" />
              <g
                 id="g82">
                <path
                   d="M44.1659033,37.5700055 L37.5707033,44.1634055 L37.0778033,43.6717055 C36.4401197,43.0346338 36.4391351,42.0013915 37.0756033,41.3631055 L41.3656033,37.0754055 C41.6707615,36.7691393 42.0853103,36.5969873 42.5176533,36.5969873 C42.9499964,36.5969873 43.3645452,36.7691393 43.6697033,37.0754055 L44.1659033,37.5700055 Z"
                   id="Path-4"
                   fill="#0E5C64" />
                <path
                   d="M21.0876033,1.11771033e-06 C9.44499994,-0.00374933508 0.00376093053,9.43140141 1.11795045e-06,21.0740048 C-0.00374973768,32.7166083 9.43140068,42.1578476 21.0740041,42.1616078 C32.7166075,42.1653591 42.1578472,32.730209 42.1616033,21.0876055 C42.1607232,9.44692019 32.7282858,0.00839556341 21.0876033,1.11771033e-06 Z M21.0876033,39.8775103 C13.4838291,39.8802154 6.62739057,35.3015399 3.71630023,28.2770867 C0.805209884,21.2526335 2.41294992,13.1662134 7.78963057,7.78953276 C13.1663112,2.41285211 21.2527314,0.805112076 28.2771845,3.71620242 C35.3016377,6.62729276 39.8803132,13.4837313 39.8776081,21.0875055 C39.8734643,31.4631887 31.4632865,39.8732769 21.0876033,39.8775103 L21.0876033,39.8775103 Z"
                   id="path81"
                   fill="#4F4F4F" />
                <path
                   d="M21.0876033,2.28400072 C10.7064736,2.28030595 2.28790588,10.692875 2.28420092,21.0740047 C2.28050571,31.4551345 10.6930744,39.8737026 21.0742041,39.877408 C31.4553339,39.8811037 39.8739024,31.4685353 39.8776046,21.0874055 C39.8794821,10.7070286 31.467979,2.28952691 21.0876033,2.28400072 L21.0876033,2.28400072 Z M21.0876033,38.3817055 C14.0927028,38.3817055 7.78654287,34.1681507 5.10968231,27.7057169 C2.43282175,21.2432831 3.91242397,13.80468 8.85855125,8.85852415 C13.8046785,3.91236827 21.2432731,2.43272304 27.7057223,5.10954623 C34.1681716,7.78636942 38.3818033,14.092505 38.3818033,21.0874055 C38.3818033,30.6387218 30.6389196,38.3817055 21.0876033,38.3817055 L21.0876033,38.3817055 Z"
                   id="path82"
                   fill="#939393" />
                <circle
                   id="circle82"
                   fill="#F4F0EF"
                   opacity="0.58"
                   transform="translate(21.088002, 21.087707) rotate(-76.717400) translate(-21.088002, -21.087707) "
                   cx="21.0880018"
                   cy="21.0877069"
                   r="17.2943" />
              </g>
              <g
                 id="Group-2"
                 transform="translate(5.948895, 5.919708)"
                 fill="#FFFFFF">
                <path
                   d="M0.681108108,15.6177972 C0.230717235,15.3169755 -0.0273646694,14.8006976 0.00230810774,14.2598972 C0.137061402,11.8978295 0.827114725,9.60086084 2.01640811,7.55559716 C2.28991275,7.08450669 2.79396525,6.79511415 3.33869388,6.79641322 C3.88342252,6.7977477 4.38607004,7.08957373 4.65729396,7.56198097 C4.92851789,8.03438821 4.92711285,8.61560675 4.65360811,9.08669716 C3.70824491,10.7210182 3.15896486,12.5541094 3.04980811,14.4389972 C3.02811508,14.8419782 2.84655797,15.2196554 2.54539246,15.4882884 C2.24422694,15.7569213 1.8483395,15.8943119 1.44550811,15.8699972 C1.17189917,15.8603896 0.906714608,15.7728967 0.681108108,15.6177972 Z"
                   id="Path-5" />
                <path
                   d="M5.69450811,5.82659716 C5.57030102,5.7419588 5.45889655,5.63991662 5.36370811,5.52359716 C5.10760199,5.21030195 4.98709684,4.80776416 5.02892426,4.40527851 C5.07075168,4.00279285 5.27145348,3.63363577 5.58650811,3.37969716 C9.87301691,-0.0994820141 15.715303,-0.965129404 20.8265081,1.12159716 C21.6042047,1.44301012 21.975402,2.33292891 21.6566085,3.11170291 C21.3378151,3.8904769 20.4491507,4.26466754 19.6693081,3.94849716 C15.5898738,2.29475099 10.9343908,2.98415299 7.50930811,5.74919716 C6.98712925,6.17104447 6.25070844,6.20245232 5.69450811,5.82659716 Z"
                   id="Path-6" />
              </g>
            </g>
            <g
               id="Group-3"
               transform="translate(5.948895, 5.919708)"
               fill="#FFFFFF">
              <path
                 d="M0.681108108,15.6177972 C0.230717235,15.3169755 -0.0273646694,14.8006976 0.00230810774,14.2598972 C0.137061402,11.8978295 0.827114725,9.60086084 2.01640811,7.55559716 C2.28991275,7.08450669 2.79396525,6.79511415 3.33869388,6.79641322 C3.88342252,6.7977477 4.38607004,7.08957373 4.65729396,7.56198097 C4.92851789,8.03438821 4.92711285,8.61560675 4.65360811,9.08669716 C3.70824491,10.7210182 3.15896486,12.5541094 3.04980811,14.4389972 C3.02811508,14.8419782 2.84655797,15.2196554 2.54539246,15.4882884 C2.24422694,15.7569213 1.8483395,15.8943119 1.44550811,15.8699972 C1.17189917,15.8603896 0.906714608,15.7728967 0.681108108,15.6177972 Z"
                 id="Path-7" />
              <path
                 d="M5.69450811,5.82659716 C5.57030102,5.7419588 5.45889655,5.63991662 5.36370811,5.52359716 C5.10760199,5.21030195 4.98709684,4.80776416 5.02892426,4.40527851 C5.07075168,4.00279285 5.27145348,3.63363577 5.58650811,3.37969716 C9.87301691,-0.0994820141 15.715303,-0.965129404 20.8265081,1.12159716 C21.6042047,1.44301012 21.975402,2.33292891 21.6566085,3.11170291 C21.3378151,3.8904769 20.4491507,4.26466754 19.6693081,3.94849716 C15.5898738,2.29475099 10.9343908,2.98415299 7.50930811,5.74919716 C6.98712925,6.17104447 6.25070844,6.20245232 5.69450811,5.82659716 Z"
                 id="Path-8" />
            </g>
          </g>
        </g>
        <ellipse
           id="ellipse85"
           stroke="#010100"
           fill="#88324C"
           cx="59.9704154"
           cy="395.1803"
           rx="4.54791541"
           ry="4.7206" />
        <ellipse
           id="ellipse93"
           stroke="#010100"
           fill="#88324c"
           cx="111.92628"
           cy="395.1803"
           rx="4.5479155"
           ry="4.7206001" />
        <ellipse
           id="Oval-Copy-4"
           stroke="#010100"
           fill="#88324c"
           cx="161.45798"
           cy="395.92523"
           rx="4.5479155"
           ry="4.7206001" />
        <ellipse
           id="Oval-Copy-3"
           stroke="#010100"
           fill="#88324C"
           cx="131.105138"
           cy="395.1803"
           rx="4.54791541"
           ry="4.7206" />
        <ellipse
           id="Oval-Copy-8"
           stroke="#010100"
           fill="#88324c"
           cx="191.81082"
           cy="395.92523"
           rx="4.5479155"
           ry="4.7206001" />
        <ellipse
           id="Oval-Copy-5"
           stroke="#010100"
           fill="#88324C"
           cx="237.807223"
           cy="395.1803"
           rx="4.54791541"
           ry="4.7206" />
        <ellipse
           id="Oval-Copy-6"
           stroke="#010100"
           fill="#88324C"
           cx="273.374585"
           cy="395.1803"
           rx="4.54791541"
           ry="4.7206" />
        <text
           xml:space="preserve"
           style="font-style:normal;font-variant:normal;font-weight:normal;font-stretch:normal;font-size:13.3333px;font-family:Sans;-inkscape-font-specification:'Sans, Normal';font-variant-ligatures:normal;font-variant-caps:normal;font-variant-numeric:normal;font-variant-east-asian:normal;fill:#000000"
           x="157.92567"
           y="385.875"
           id="text122"><tspan
             sodipodi:role="line"
             id="tspan122"
             x="157.92567"
             y="385.875">25 години</tspan></text>
        <text
           xml:space="preserve"
           style="font-style:normal;font-variant:normal;font-weight:normal;font-stretch:normal;font-size:13.3333px;font-family:Sans;-inkscape-font-specification:'Sans, Normal';font-variant-ligatures:normal;font-variant-caps:normal;font-variant-numeric:normal;font-variant-east-asian:normal;fill:#000000"
           x="230.1841"
           y="417.16214"
           id="text123"><tspan
             sodipodi:role="line"
             id="tspan123"
             x="230.1841"
             y="417.16214">50 години</tspan></text>
      </g>
      <text
         xml:space="preserve"
         style="font-size:18.6667px;font-family:Sans;-inkscape-font-specification:'Sans, Normal';fill:#008000"
         x="975.0119"
         y="567.12506"
         id="text118"><tspan
           sodipodi:role="line"
           id="tspan118"
           x="975.0119"
           y="567.12506"
           style="font-style:normal;font-variant:normal;font-weight:bold;font-stretch:normal;font-size:18.6667px;font-family:Sans;-inkscape-font-specification:'Sans, Bold';font-variant-ligatures:normal;font-variant-caps:normal;font-variant-numeric:normal;font-variant-east-asian:normal;fill:#000000">Профилактични изследвания</tspan><tspan
           sodipodi:role="line"
           x="975.0119"
           y="590.45844"
           style="font-style:normal;font-variant:normal;font-weight:bold;font-stretch:normal;font-size:18.6667px;font-family:Sans;-inkscape-font-specification:'Sans, Bold';font-variant-ligatures:normal;font-variant-caps:normal;font-variant-numeric:normal;font-variant-east-asian:normal;fill:#000000"
           id="tspan119">през целия жизнен цикъл</tspan></text>
      <text
         xml:space="preserve"
         style="font-style:normal;font-variant:normal;font-weight:bold;font-stretch:normal;font-size:13.3333px;font-family:Sans;-inkscape-font-specification:'Sans, Bold';font-variant-ligatures:normal;font-variant-caps:normal;font-variant-numeric:normal;font-variant-east-asian:normal;fill:#000000"
         x="966.8175"
         y="929.9071"
         id="text120"><tspan
           sodipodi:role="line"
           id="tspan120"
           x="966.8175"
           y="929.9071"
           style="font-style:normal;font-variant:normal;font-weight:normal;font-stretch:normal;font-size:13.3333px;font-family:Sans;-inkscape-font-specification:'Sans, Normal';font-variant-ligatures:normal;font-variant-caps:normal;font-variant-numeric:normal;font-variant-east-asian:normal">раждане</tspan></text>
      <text
         xml:space="preserve"
         style="font-style:normal;font-variant:normal;font-weight:normal;font-stretch:normal;font-size:13.3333px;font-family:Sans;-inkscape-font-specification:'Sans, Normal';font-variant-ligatures:normal;font-variant-caps:normal;font-variant-numeric:normal;font-variant-east-asian:normal;fill:#000000"
         x="1241.6975"
         y="879.99664"
         id="text121"><tspan
           sodipodi:role="line"
           id="tspan121"
           x="1241.6975"
           y="879.99664">65 години</tspan></text>
    </g>
  </g>
</svg>
